<mxfile host="app.diagrams.net" modified="2023-06-14T10:06:28.781Z" agent="Mozilla/5.0 (Windows NT 10.0; Win64; x64) AppleWebKit/537.36 (KHTML, like Gecko) Chrome/114.0.0.0 Safari/537.36" etag="jLPRbpomxUMhwYVDvrcD" version="21.3.8" type="github">
  <diagram name="第 1 页" id="LymCGl9r2Gk_7UAoZUb0">
    <mxGraphModel dx="7378" dy="3646" grid="1" gridSize="10" guides="1" tooltips="1" connect="1" arrows="1" fold="1" page="1" pageScale="1" pageWidth="827" pageHeight="1169" math="0" shadow="0">
      <root>
        <mxCell id="0" />
        <mxCell id="1" parent="0" />
        <mxCell id="3FKu3UgbwwgSf9K0Oz-_-1" style="edgeStyle=orthogonalEdgeStyle;rounded=0;orthogonalLoop=1;jettySize=auto;html=1;exitX=0.5;exitY=1;exitDx=0;exitDy=0;" edge="1" parent="1" source="3FKu3UgbwwgSf9K0Oz-_-2" target="3FKu3UgbwwgSf9K0Oz-_-8">
          <mxGeometry relative="1" as="geometry">
            <mxPoint x="5" y="700" as="targetPoint" />
          </mxGeometry>
        </mxCell>
        <mxCell id="3FKu3UgbwwgSf9K0Oz-_-2" value="&lt;pre style=&quot;background-color:#ffffff;color:#000000;font-family:&#39;JetBrains Mono&#39;,monospace;font-size:9.8pt;&quot;&gt;&lt;pre style=&quot;font-family: &amp;quot;JetBrains Mono&amp;quot;, monospace; font-size: 9.8pt;&quot;&gt;RequestAuthorityJudgeFilter&lt;/pre&gt;&lt;/pre&gt;" style="rounded=0;whiteSpace=wrap;html=1;" vertex="1" parent="1">
          <mxGeometry x="-125" y="77" width="250" height="40" as="geometry" />
        </mxCell>
        <mxCell id="3FKu3UgbwwgSf9K0Oz-_-3" style="edgeStyle=orthogonalEdgeStyle;rounded=0;orthogonalLoop=1;jettySize=auto;html=1;exitX=0.5;exitY=1;exitDx=0;exitDy=0;" edge="1" parent="1" source="3FKu3UgbwwgSf9K0Oz-_-4" target="3FKu3UgbwwgSf9K0Oz-_-6">
          <mxGeometry relative="1" as="geometry" />
        </mxCell>
        <mxCell id="3FKu3UgbwwgSf9K0Oz-_-4" value="&lt;pre style=&quot;background-color:#ffffff;color:#000000;font-family:&#39;JetBrains Mono&#39;,monospace;font-size:9.8pt;&quot;&gt;TokenAuthenticatorManager&lt;br/&gt;token认证处理器&lt;/pre&gt;" style="rounded=0;whiteSpace=wrap;html=1;" vertex="1" parent="1">
          <mxGeometry x="595" y="77" width="250" height="40" as="geometry" />
        </mxCell>
        <mxCell id="3FKu3UgbwwgSf9K0Oz-_-5" style="edgeStyle=orthogonalEdgeStyle;rounded=0;orthogonalLoop=1;jettySize=auto;html=1;exitX=1;exitY=0.5;exitDx=0;exitDy=0;entryX=0;entryY=0.5;entryDx=0;entryDy=0;" edge="1" parent="1" source="3FKu3UgbwwgSf9K0Oz-_-6" target="3FKu3UgbwwgSf9K0Oz-_-12">
          <mxGeometry relative="1" as="geometry" />
        </mxCell>
        <mxCell id="3FKu3UgbwwgSf9K0Oz-_-6" value="&lt;pre style=&quot;background-color:#ffffff;color:#000000;font-family:&#39;JetBrains Mono&#39;,monospace;font-size:9.8pt;&quot;&gt;&lt;pre style=&quot;font-family: &amp;quot;JetBrains Mono&amp;quot;, monospace; font-size: 9.8pt;&quot;&gt;attemptAuthentication&lt;/pre&gt;&lt;/pre&gt;" style="rounded=0;whiteSpace=wrap;html=1;" vertex="1" parent="1">
          <mxGeometry x="640" y="500" width="160" height="40" as="geometry" />
        </mxCell>
        <mxCell id="3FKu3UgbwwgSf9K0Oz-_-7" style="edgeStyle=orthogonalEdgeStyle;rounded=0;orthogonalLoop=1;jettySize=auto;html=1;exitX=1;exitY=0.75;exitDx=0;exitDy=0;" edge="1" parent="1" source="3FKu3UgbwwgSf9K0Oz-_-8">
          <mxGeometry relative="1" as="geometry">
            <mxPoint x="635" y="520" as="targetPoint" />
          </mxGeometry>
        </mxCell>
        <mxCell id="3FKu3UgbwwgSf9K0Oz-_-8" value="&lt;pre style=&quot;background-color:#ffffff;color:#000000;font-family:&#39;JetBrains Mono&#39;,monospace;font-size:9.8pt;&quot;&gt;&lt;pre style=&quot;font-family: &amp;quot;JetBrains Mono&amp;quot;, monospace; font-size: 9.8pt;&quot;&gt;doFilter&lt;/pre&gt;&lt;/pre&gt;" style="rounded=0;whiteSpace=wrap;html=1;" vertex="1" parent="1">
          <mxGeometry x="-80" y="470" width="160" height="70" as="geometry" />
        </mxCell>
        <mxCell id="3FKu3UgbwwgSf9K0Oz-_-9" style="edgeStyle=orthogonalEdgeStyle;rounded=0;orthogonalLoop=1;jettySize=auto;html=1;exitX=0.5;exitY=1;exitDx=0;exitDy=0;" edge="1" parent="1" source="3FKu3UgbwwgSf9K0Oz-_-10" target="3FKu3UgbwwgSf9K0Oz-_-12">
          <mxGeometry relative="1" as="geometry" />
        </mxCell>
        <mxCell id="3FKu3UgbwwgSf9K0Oz-_-10" value="&lt;pre style=&quot;background-color:#ffffff;color:#000000;font-family:&#39;JetBrains Mono&#39;,monospace;font-size:9.8pt;&quot;&gt;&lt;pre style=&quot;font-family: &amp;quot;JetBrains Mono&amp;quot;, monospace; font-size: 9.8pt;&quot;&gt;ITokenAuthenticator&lt;br/&gt;tokne认证方式&lt;/pre&gt;&lt;/pre&gt;" style="rounded=0;whiteSpace=wrap;html=1;" vertex="1" parent="1">
          <mxGeometry x="1025" y="80" width="250" height="40" as="geometry" />
        </mxCell>
        <mxCell id="3FKu3UgbwwgSf9K0Oz-_-11" style="edgeStyle=orthogonalEdgeStyle;rounded=0;orthogonalLoop=1;jettySize=auto;html=1;exitX=1;exitY=0.5;exitDx=0;exitDy=0;entryX=0;entryY=0.5;entryDx=0;entryDy=0;" edge="1" parent="1" source="3FKu3UgbwwgSf9K0Oz-_-12" target="3FKu3UgbwwgSf9K0Oz-_-17">
          <mxGeometry relative="1" as="geometry" />
        </mxCell>
        <mxCell id="3FKu3UgbwwgSf9K0Oz-_-12" value="&lt;pre style=&quot;background-color:#ffffff;color:#000000;font-family:&#39;JetBrains Mono&#39;,monospace;font-size:9.8pt;&quot;&gt;&lt;pre style=&quot;font-family: &amp;quot;JetBrains Mono&amp;quot;, monospace; font-size: 9.8pt;&quot;&gt;attemptAuthentication&lt;/pre&gt;&lt;/pre&gt;" style="rounded=0;whiteSpace=wrap;html=1;" vertex="1" parent="1">
          <mxGeometry x="1070" y="500" width="160" height="40" as="geometry" />
        </mxCell>
        <mxCell id="3FKu3UgbwwgSf9K0Oz-_-13" style="edgeStyle=orthogonalEdgeStyle;rounded=0;orthogonalLoop=1;jettySize=auto;html=1;exitX=0.5;exitY=1;exitDx=0;exitDy=0;" edge="1" parent="1" source="3FKu3UgbwwgSf9K0Oz-_-14" target="3FKu3UgbwwgSf9K0Oz-_-17">
          <mxGeometry relative="1" as="geometry" />
        </mxCell>
        <mxCell id="3FKu3UgbwwgSf9K0Oz-_-14" value="&lt;pre style=&quot;background-color:#ffffff;color:#000000;font-family:&#39;JetBrains Mono&#39;,monospace;font-size:9.8pt;&quot;&gt;&lt;pre style=&quot;font-family: &amp;quot;JetBrains Mono&amp;quot;, monospace; font-size: 9.8pt;&quot;&gt;FileShareTokenAuthenticator&lt;/pre&gt;&lt;/pre&gt;" style="rounded=0;whiteSpace=wrap;html=1;" vertex="1" parent="1">
          <mxGeometry x="1375" y="80" width="250" height="40" as="geometry" />
        </mxCell>
        <mxCell id="3FKu3UgbwwgSf9K0Oz-_-15" value="" style="shape=image;verticalLabelPosition=bottom;labelBackgroundColor=default;verticalAlign=top;aspect=fixed;imageAspect=0;image=data:image/png,iVBORw0KGgoAAAANSUhEUgAAAdQAAACdCAYAAAANB4l8AAAgAElEQVR4nOydd3hUxdrAf2fT+6YTAgkpQAghoYTeiUj9FJAiIkjRK4rC9arYQPFee+8CAiIqSO+h9w6hE3oIAdJ7Tzabne8PUjbZTdlNQtHze548sHPeM+c973ln3pk5M3OkOXPmiPfee4/KXMtSEX4nB7VG6ByrDlOFxOAmtjS3NzfoPBkZmX8IaQf4+MX32SX15/2f3qC74/1W6O9BQdIFDu09TlSGGpr1Y8qj/pjcb6X+YZjqS4zPVxsVTAHUGkH4nRxG+9jjYaU3exkZmX8wubvn8vbyXcAuGo18ie5P2NxvlR56CuOOsXnLGVJMXAnq3Z22fu5yML0PKConFAvYdCvbqGBailoj2HQrm+JaZpG/+V/YSRKSZM2UDblGX1emoYhglp+EJNXw5zeLCGMvkbyEoZKE9PRqCutT9XqgYf0zlp/DJCTpObZUJ3bje7pJEnYv76jn69eVWuqvhU3oY4wLdMIpcAKPd7zfwdRw/R84CqI5sOMMKaZN6DHscbq3dMdG7svcF3TMfjo1n6wiTZUn5KYkkh4bQ35GGtZOrjj7NMfS1l5HLqtIw+nUfEJdrGpQQcOJPeHkOPviK24Qvuc4xY/1lVtXDxTudHv+Hd7JKv2dwL6fFnKQHkx5sTeNSpPtu+F+fxRsQGT/rHeajeGPyDH3W4u/CYKE00eIKjDDu09fWitlz7yf6ATUs2n6+wfFRYVc3LqW26ePVkg3MTUjaPBIPNt21jnnbFphLQLqBfZuiUXR5ztmFE9nxpZ9nP+6L21rfw8yDU5TBs/8gMFlvyOYtWwhB+nN1A8+IPQ+atbwyP4p8wAjEom6ng3WrQlpYX2/tfnHU2HIN7WwmAxVsV7ByPDVxJ0/ScAjj9HvP/9l8Lvf0Hva23h16Ia9RxO952Soikkt1J9fGdH72XYRuvUcxMBeXeHKNvZH6ZErG/LaTuKBr5jYOwB3Jzdadh7Cy3OPkqz3MrlcWfchU/qH4OVkjbXSi5D+U/how1Xy6pR/BivG2iFJXrxxqEjnquLMBwRKEtZj/iIDADXrJklIfu+wbtO/6ebpjHe/WexNjWPTK71p4uJF50m/EKmjlAH6n/+ENpKE15uHdPQ59KYXktSGT85XOlCcyKF5/2FY1zZ4O1kgmSnxat2TsbOXcj5Tnz0NxQD9qyFp03N4SxKeT60gvsJrhEJubvuKF4eG4utmh52bL50ee5nvdt1GVTkTo/yH2vunQfbXHkJvwou7ARYwuNIQ+sg/0/VcSBigf0PZxxj9S4dWa3OPpeQTFf45U4eE0szZFgePADo/OpEP114kU+/rpFyub/2Olx/vSqCXE0qPlnTqP5EP110mq4K8sfY3xJ8TmD9QQrJ4ge1J+/ns6Z74u9hh5xFI2HOfs+uObr1hFFkJJOSBaWNP3KWahIvIiI5g14bl/L5oAQsX/8GKdds5di1V9zVLxmlWzZvHgj03yb1zku2r/+DXRb/yx4oN7DkbR57xbwTLEXnEnt7F2qWLWbBwMX+u2cmZ2Dxu7lnAvHmrOatdB6musmXePObPn6/3b978XdzUyT+X2HP72bRyKUsWzWfe/IUsWbqaLYcvk6y336gmM/rkXfv8uoAFv/7Oio17OB2ThU7xqsI+FXqoyQX6a5WspDjunD1O4IARNOvcqyzdxtmNVgOGV2uz5IJinC2qHoZI2r+Dw/gxp4c/LUR/fPkvOw8kMt2visHDhD95eewp8gcN5KmgeA6vXcUPL2wnIvMk+98IxqxMsIiLPwynx8s7yPTozMgxz9NYiufohsW88/g6Dvx0iI0vBOh20WuVv5Ih48fh9Nc8fl+xn/91D6N8TrPg9IZlXMKWiWMHo9TOu3Avv69uQ6dHWrJ0yYe88extmtq3Y3DwTX5Z/CIzewxm8xTPuulfa4qJ/HYU/V89gFXIMEZPGoqzhZrUyztY/sE4dp3K59jmKfgYnX/96C/uLOPFKQu45fscW74fjUdZpaEm6tcn6Tp5HZk+vRg58jncpSRObpnPjEdWcWDJYf4a76M7NFtr/7mLwf5ZK1wIfXoGMzIBcjm3ZgF7bgcxbEYY3lpSrfz0zJQv0T9v0ECeCorj0JqVVejfkPYxRn8bgke/wztd7/4qiFzNl+suV2MjNVfmjaT71HBSXTswfOSz+FhkcHbLCmaN+IvVb+1k/0c9sC2TV3Fx7mj6vhBOrl8/hg+bzGAplbNbVzJr+Ao2fXSAvW91wMJo/Y315wR+nTaKM9lDGDKhLamnw1m5YCaPHohl17Fv6ONQjQlqQ14uuYC1rY3uhJgKaEg7t4X1R+JRmStp4t0cO0UhqXdiOLM7hptJgxne3RMdj8u7wr5dqRR7NsHXMY/EW7e5enQTKarhPNHRtYZrVk/62a2EH09GY+FIk2bu2IhMLu7ci7OLHmETJd5BQei8XCxI4Or1FFRmJpVsL0g5tZXwiBRMHDzx9vfG0kRDQUYsMef3sSmliBGPtaHc/BoyLmxl7aFYiqxd8PJqgbWUR3LsNY5vjSGu53AGBzqg02apZB/mzJkjSolIyRdfnE/R+ZuxZKPoN+pp8cHhKL3Hq/uLSMkXVZMrVk+wErhOF3uKhBCqXeIlV4TV06tETmXRqO9EVxCmzoPFj5fK8yy685d4shECm+fEFpWWfNY68bQ9Au9nxcZEdVlycfJm8S8fBPbPiA3Zdci/8IB4xQuB03NiS65WuuaUeDcAgdOzIrwsvUisnYiAkWJ5phBC3BI/9EHQ5wdxSwgh0peK4SBsp20TGmP1P/exCALR9I2DOlY++EZTAUHi43PaqVfEZx0ROE0Rm7XzEbni6E/TxLPPzhFbEnSyKuGEeMcXge874kRVIobqn/SbGAKCcatEQZnZroufBjoKFIHi9X2ZFfPP2SymOCMUbd8UR7K0r3tEvNlWIXCbKrZrPxdDn2+JLWrtnwbbv5Q74qd+CHhWhOs7XFl/p4Hi28i8smTV7T/FKFc9+t8T+xigfyXS/nhCAOKJP9L0C2SvFxPsEXhNFGviirTu65R4v7OpgD7i5xgt+cL9YmabpsKr73/FCe2Hk3NCvN0WgcVTYk0FPzdQf0P9WcSLeQMQYCF6fBBR7i+adLFzRksBCjFw/p3qrlg7YvaKX+bOFSsjqrBjKYXXxdYFc8Xc37aJqznFWumJ4siKeWLu3FXirHYRSz8lVs6dK+YtWi9Op5Tbvzj7sgj/da6Y+8tOcUMrG4MpjhG7F80VcxduEpFZ5RmpkiLEmoV39TmTUVMe6eLshkVi7twlYtvVyg83TZxYPlfMXbhD3CjUTleJuDO7xI4dh8UNbT8pvCF2LJor5i47KGK15QtjxcFlc8XcRTtFtLb/V2EfwxoYoj76+VoUHWXPlnxsBvehkylg1pm+g6zI37KXY1WMiKj7PMXTAZZlv009n+Dpx6wg9wLXbmsJXopgfxZ4jZ3EULfydrjCZTDPjPGCrD0cv1iH/M278dSkQEhbxvLtZbN10JzawF+XwWPcGMIqv9Iwd8HRHsAJF3fA3QUnAKUL7uaQk5tXPrRgpP61p5jiIsDcAosKTTtrOr/wA7/88h4D69IJq7P+Ks59NYlXt+bS6b3feL9XpbbppePsSYX2Y8fTxU4r3a4L48e2h6TdHL2im2utny8Y5Z8NjbrPOJ4JLJ+XYNZkNM8M0+f/98A+DUnkcfZkgddTzzHcQ8tBbdoxZfZspk5tjXWGlrx5Tz49d4uY3bMJ1Z44bBPKo/3coPASUXfqoI/R/tyLiZM7UKaSpCRs4tO0RMOBs5F1UMhAUhNIVIOVX2ua22hV++ZuBIUG4+/viImeYVDh1pxA53L7K2ybE9BUAcXpZGTpytea7DTSVKDwDqSVXbk+Zq6taeFWmzijIvbINo7GqXFu258+zW0rHdcgNIBCgaJClDPDI6QfjzzSFR9tP0lLIF4FSv8AGmt3080bE+CvBFU8CXreTlS2T4Wq1MZUf3xVet4dCIm7cArfbv1qvNXa5AnA2X2EJ0P/sB7cjT029OjXH5aEs/fMd/TrqPtSwNbDrVK33xSlowuQTa72iobcHDKA1m664wcubp5AJDl6VkDUOn8UhI6dTOj7r7F8WThfD3sSJYKT65dxFU9eG9VLd/jEEIzUv/b4M2hMJ2a/9RNje6bw9LCehAS0oFWb9oQ0d8GixvcxNWCs/ueWMWfWaUxUV1j/9QEUfb5k8Zuh6Exty84kBWD/fGZlVSxMOWfSgBTSMiqfZMjzxSj/bGhsG7tTcZTQFKWTHv3vhX0aktwc0oE2evzHc8i7/DxEzzmaTC7t2sz+89HEpeWXNU5jjxQARajr0ggyujx64u5aKcmrG5OnTiU6xAkNetYuNgRFalSA0lJ34pKtTxfCqni3Y2JtVakeU2BuYQGo6mbPgnzyACtrq0rDqJbYWNc0U1mQfWU3Oy9kYOHVm0c7NdJT1zri7efI6VPX2L26AL9mjXF2VOLk6oaro7Xu0HyR6u68grjzHDpU8cVPUaoKUFGop8FR2T4V8nW11H8jdm6N8WzTgau7NyM0xXi27YyZlTXZifHcOLAdO/fGNO8zSO+5VeUJcGXfNm7gSvNTi/k8oSQxrhBXbrBt3xX+2zGgynNrRAiqXvwDoKl7h7vlGKaEzeSFdUvZmPQk411Osm7ZFfB7i9Hd6rhTVIPrb0bIq+vZq/yUzxeuZu6sFeSXHLEPfII3vvuWN8M8jS/sxup/fnWFyVMt2rXHS58pS/K/sflbPtysL3/bOj/fBvXPhuYe2OeBQnWBH4YPYEZ4XA1+ZyT1WR6d+jHzZ8M6JlUiSUiA4CF7mNWpW0M7tSjpJNsPxKBSBjEkLAB7vfIK3DoMYYhFBKcvxXDlzG2EdFfQxNaTNt170dHbrvxS4q5K+QlXiUzQn19tTFwhoDpbmKA0N9E70zdw8CgAruzezJXd5SXU3Mqaxm3a681caW5SzYSkBPbtOAbAtm9msq3S0eSd+0l4LaB8jaOhSFINwUCBVOcORhNGTBzGjF3rWLo+lnEh6/nrOgS9P5LQui4HM1T/koJVTYa692vWiO5Tv6b71K8oSLvNjetXOLtvOV9+uJB3RhTS9OJGxnvqzaxmjLX/uFUU/PEEFkWX+SKsLa9/O51Pxhzlf50rtaxL8h8w7w5b/2WsktVhoH8aY/+GpMHt82Bx+7fXeSU8iXbTV/PHu4Np4WxZ5n+H3vSix6d1vMA9qU+MwMwUc6BAX/fpQUZhggIo1lSONQJNcTVNl7xo9m8/SYqpJz0GdK04PKtzDRs8g3vjGQzq/CwyM9JIjr3O2bNRnN65F9sx/0dg6eCNdDeOu3UZy7Bgu2oyreG2KieEOFnoFTSzsCRk+Hh6TJ1J0NDRtAwbSvtRk+j77/doFNhO7zlV5QVA1kF27QHbZzdSIASi7K+QTf9ygD27OFiXMXobW5RAbFKKzqGUpFjAEbvKw+5G4Pb4BEY7aNi6fCMbNq/kBm0ZP7J9TY2smjFUfxtbHID4xORKSyIKSUqIB5TV3K+EpZMXgZ36M/b1X/hzdhfI2sr+0zqLKxpO/8qYBTD9h/fppDjPJ9M+53Tl+sLOARcgITXVeB2rw1D/rJP9G4CGtk9DY2OLI/r95876d5g06TkWni3tMggunjmImq5MfmUEAVrBFIrJy82pF33uRX1iMPYOOAB56ekUVCdXEnjzCnQX+GRfP8T27Ts5n9RAOurDzhZ7ID8llQoj5SKV5JQquoKaDM7t3Mv1PHsCH3mE1sraj5+ZWtnj7NGMgNBH6B/iBOp44pK0grmZ+d2GSUG1VqwRHY3aOVthb1a1ovZujfFq3w2/7o/QqFUIJmb6g6a9mYJ2zlVv6lB4eDfbVNCnWygVczCnc/c+oNrGniN1qNADO9HXHm4t+5VNWobTpITz2/Jb4NCPzoHGZ1+G3UAmjPeAPT8ye9UV6DKeJ+ojX0P19+5ID19Qr13E79HldlNFLWbBWjX496KTl5Z81hZe79ubvtOWE1ehQVhISnIG4IiDfeVFJA2ovx7Mg//Nj7M6oDn5AS9+fa5ioGrVhTBnOLt0CQe1FyUW3WT+iMY4u41iaR0qCIP901D7l2GPgxNACul63mkaTQPbp5wG0r/Uf/6cz5p4dXl67ikWfPQZi5dEoXYqbbZKuLg1AS5z6HhChZG5/KtLWBReXT1SS/3vVX1iKNaeeDoD8dHcrG5xt3Mj3E0hPyqSa7laBV6VyIVTkURHZyEsqz7dEFTxEaz/fRGLft9AREIVtrfyxMtNAQln2HvqDpkFRajyUrlx+BjRRfqG90omIcVD4y4D6NakBmVV0RxYvZrVu6+QUyE+q8kvUAFmmJtrXcepEY3NIfP6JWK1G++aTM5tXsyiXzdzuRaL53XezZpIMNTLjhXRWUbv52uqkBjqZYdJld00QcTecDIJpmcn3UFdl8496cB6Nu+N4IcB3Yzr7dkO4o2P+rPhpQU83vY8I4d1w5M4jmxYydFYJwb9/AYD6mUbUQv6PjURnx8+5sJF6PfTCPzqI1tD9Vd04qXPJrB05BKe7diF8FG9aSpusnflOs7m+PLsHy8Rqt1Osu9Ib/87fPHTBLpe2MiwLt7YKQpIubKHlWsvY95hNk+G1qGfXS/2tyD09Z+Yuborn8yZxo+P7eaVwJIgb9OfN78YzvpJXxIWcpyRQzvS2Cyba3vWsf5sHp1nzWCIm7HKG+Gfhtq/DDu6hIVhsWodrw8Zx+GOriWF0oVHX5/FYGNHaxvUPkbof20d7/8WQek8loLIuzNcI1d9yKxLpZWjD4+/NYWONoDdYN7+bDCbp/7GEyEXGDG8Jz6WGZwJX86u6ya0e/t/jGtarkXw2OmEffUiS8e1I2rlMLo1syT/9knCd9sxaHATuFFH/e9ZfWIoSgJaN+HM/jucPHEb395N9U+GNPehY0cP4o5Es3vFSq56NcLOpJDU2zEk5UkogzoToLuDrFEkXbtAYr4aSODCtSRCG+nb+MeB1t07cH3TCWIjwllesgm4qVsn2jaO58T1SuLp5zl0IQNh7oJ19iWO6uyfYkmTkA54l44SmLvj6ZDHxWv7WJMejZe7HWZSMQUZ8cTcyUFStqGF9ioG82Z06NSEWwcvsXlFMl6ertiYFJEZf4vYzGKc2rTFpxYbUeldV+9hZcrgJrZ1+nxb9V+aucT+rTHgOp1O+uZ1tOhKX0/4Yss+Ln3cDeMafqa0mraWw42/4bMfl7Nt6U+k4kyLjs/w4Y9v8O/HW9ZhU4RKV+oyjDE+H/NJzADGDWtWX7karL/nE79wYGdbPv5yCRuX/cwW3Ans+RLfv/YmU3tXDgwuDP1uJ5tbfsp3S3fx14/LSCpywMu/JT1n/Mxrr08mtE47mdWT/a078c6Pr7K21+fMfulnhu6YTnMTABN8Jy7jmMePfPb9UsL/mk+6WSOat/k/PlwxgxdGBmP8mnnj/NMw+5fjO3kha5Pe4n+/72TRt0klk8OCaDSlDgG1Qe1jhP639/LFh99SefD18rov+XBd6a8htJhRElAxpeXzqzja5Hs+//Evtq6cx3aLprQKGs0Hn87kpeGBaI+wmrV4nhX77Pjsw3lsPrachfscadH1/5i1aRbtwnswr67638P6xFBsArrT8eoajlzeyVabR3mkgyfWOm1hBU7Bgxhud5aT56KIjblKvMIKewdv2nbpQNvmznVblaCFm18grjHnScOZ1r5Vt9pM3dozbExjoqLukJYPVkoP/Pw8Sd53QldYrUENSEWpREXqvsYQwhbzFloBFWt8e/8fjypPcjYqjujLMag0ZljZ2uHWsgvtQoNoVGEATkLZegAjrM8Scf46cTFXiZUssFU2oV27EIJbulHNC8zyXKr6Hirc/YzbplvZ1W6Wr429mYKhXnb/vM+23Z5Hv2ZTOfTYEmLXjkffRh8yMjIyDUZ+LIfDt3M+RYWlsw8t2nWii5+y7nM57gPRu+az/bozXcc+QXA99ZrvFdW+1fWwMmVyC0d6N7LGsZrtAx0tTOjdyJrJLRz/ecEUuLryN/ZorBgxdqgcTGVkZO49Vp50e3wEj7ZvhmVWNOeuJenuP/tQkElGhgCFA3b3+8t+RlBj9DORINTFilAXK9IKi0nMV5OrvttjtTFV4G5lilM1wfZvjzjH8sVHwH4CYwc53m9tZGRk/qmYOuDTcQDNQrJJzOQh+MSgithzJ7iZXfpbQ0HabaJTwKZlCzwf/BvQwaDupJOFyT87eOpBfXwFi8+D879G09/45UsyMjIy9YJkbkejyrszPZAUkXrjApFJdwemhVBgaeeIZ0gnurb3qrd3uveSf974bD1j2vkDosQH91sNGRkZmYcMG4KHPU/w/VajHrkn20jKyMjIyMj83ZEDqoyMjIyMTD0gB1QZGRkZGZl6wBTA812dbSdkZGRkZGRkDEDuocrIyMjIyNQDckCVkZGRkZGpB+SAKiMjIyMjUw/IAVVGRkZGRqYekAOqjIyMjIxMPWDQTkmmZiaYWpigKPnQqaZYoC4sRl30cG7DLCMjIyMjU1/UGFAlScLK3hxrBwsUpvo7tBq1hrzMQvKzVAhh3EfJZWRkZGRkHmaqHfI1szTFqYkdts5WVQZTAIWpAltnK5ya2GFmKW8PLCMjI3M/ECZm9GrXhO97O2Ahd27uOVVGSUsbcxw9bDExq/1rVhMzBY4etljaNOx3AoSNAx88E8KOCd4MtJGdRkbmYUIuvw2Dq5cHi1/qwLLh3gxrYvZQflz8YUdvtDSzNMXezRqjnogE9m7WDdpTdQjwZJKfLYH+TZjUUp5XJSPzMCGX3/rHxbcZK5/x5VGbfFZsPEf35ckUSHJIvdfoRD1JkrB3NTKYlmUC9q7WpN3JrvKdqrD1YMtMX0KqyebGvlP03JWvk555M4WDmfZ0IJNtNzVUVtatc2tOD1FWOquARfMimB1bf04mBAS0bsJrXV3p3MgSO9TEpeZwKOI2n0dkk6yll3BtwsGXvWly/hI+K9PqTYd7gRB2fP1mMGNsahDMjWfsJ1HsN6Igl/nDtav4LUl6oCoD6+CWRI50wRzB7tVHGH+2/npVQlgw88VQ/u2Rwr9nX2ZlFff9oPpPbfXXpqbyey8xRv8HDWHtzFdjPGmuzuDjhZH8kAT306b/ZHQCqpW9ebXDvCIrBU1qLCInA8nOCUUjHyRLWx05EzMFVvbm5GUWVquASEtnRVSB3mOJd9R606XUJMZ8mVT6S+d4XmIay0+UB2J3b3f6uFWrhsEIIQjsEsTaIUps8nM5ei2ZRI0p/t6OjHvMkbBmlxm4MpXkh7CA6qLi6Ol4sCj9bUaHEBf8yWXX2SxSSpMLM4m/Pwo2GEJAHz8HzFUqUjGnk78SkzNpFP8tnuv9oabyK1N7hIDefX0Isyrm0PqrJcFU5n6hJ6Ba6JODYhVFEdtQ3zhVMV1hikXHISh82+qcYmVvUWNA1cQn8p+NqbXXuBbk3IznPzfLfw943KXeAyomjswIU2KXm8yMH6+wKqfkq/Om1rz7XAhTg715/kAqHyTW83XvA5JUyIrtN1hR8lsIO74OdMGfLBZsqNQj/dsFGlt6+ZohYmP4S/Jmmo+SzqRx+H6rJSMDINkxorUF5CYw96QKuYFyf6kQUE3MTarsnRad2II65gJmbftj4hOMZGmLyE5FfTUCyamR3nNMzBSYmJtQrKr7OtXyoZmK6cc3H2X4sfpZBysEtApqysxurnR0t8AWNXEJGWw+dIsvLxZQqB0s7KzxtQRxOY112ZT5saTOY/GBeJq3sSDHQr9zN23elE8fbUSoo4K8rDxOnI3hvf2ZxImK8kJIBLfxZHpnFzq4WqJUFBOfmsO+YzF8cSaXNO0hZWHOq1M78qpHMtO/TCJ4WDOGe1thpykiKjqJ77feYn16He7XKHtKtG/nzX86O9Pe1QIbSU1SUhY7jsbw8Zk8cmqZv2dIS7Y/4YLi+jUGLkkkpuS+DdFfe8i01xmbWtkfAFcl3Rwg6nQqmyUXpjVzoI87HK7UExCe3px8vglWJy/Qen1mhWMDHu/Eog7FZa8c9A+hu/DN/3rwjVZKVb5de/9pGPsYo78x5VcIiaDgprzW1YWObhbYaO6+Utl3PIYvT+eSinHlxVj7G+LPxpRHo3Cxp50tqC5ksF9QbTw1xJ5GlxcDEJgxqI8Pr3ZwxN8aMlIyWL7jBlfbhfJ9m3y++fY0n6eWPDNzV1bNakG3qjLTJPPye1dYo/0MJDMG9vBmWlsH/BwsUJoJMrLyuXg1ni92JnAsv/7LS4WAamZuol/XzETU0Wcwaz8I05adytIlO2fMOgyo1mhm9RRQQc35C/Esv3P3l7mrE8ObVdGbNgIhIKh7a9YOVGKZm8vRq8mkYEYrH1emjXUidPMZRh0tKB/qy1GRpIHWbra0VyRzXOu12u0LN5lwoYoL2brzzUhrrG5msCvZnGB/JYPDgmhleY6+W7MpksqDRcc+QSwNs8csJ4dj11NIwZQWPo48M8KRXu7neWRrlp53jWY8ObIl/uaZHL2Yi0MjJV1bNeVHTwuKf7zKpvzy/A26XyPs2bFvG5b3s8OiII+j15JJFua08XNm4hNKOijPMXRvLuqa8nd054ehLihzU/j3morB1Cj9S+xvWYP9S2nSXIkfKv6IyuOMlElq78Z08zOHpCKj7HIXFacik7C2AFDQvLkLAdYFRJzNqjBkfi1Zo3uqAf7TcPYxRn/Dyq8Q0L5XECv622Otyifiegp31Ka08HXkmeGO9GsayYD1GWQaVV4M1994f65deTQaewtcgJSswmrLkqH2LMPA8lJbhBCE9AlkXj9bTAvyOHY1h2QTS0aNasHVBD0nqPPZfSKe25XTbe35v1Y2WKsF2mOhQkCnsNbM622DOj2D/RfTyVArULo40LujP797mPD4vFgu1XN5qRBQq1prKlJiATDxamWAyarP01AkqZitB2hVNrcAACAASURBVG6wteS3W2ereg2oWDjzRj8l1unxTPw5ip0FJYa2tOe7F9ow8hFvHj91hTWl9ag6lb/OqejbtjE/jC3i/R3xbE0qrjEAmXqacXLRKT6KuxuBzRzd+WuaP126eDJsx2VWlpZhUwcmdLCiKD6WZxdGs19V2lKz45tpwYzu2pRReyP5vfKIusIBt/jz9NqSRbYkITBh+Mj2/BjsxksdbrHpYKFx92soVi681tMOy9wUXv3xCn/l3E2WbJ35dVoA/Xt5M+roRZZV80ZASJbMHO1DJ/NCVq+8xsocLdsaqb+ppynHFp7ks5Ka01TpxrIXm9Otsv2526IP87MHVTIHbgFSBsdUjenvp8TucBLZRlYmklTIH5uu8QelPTcXAqxz+GPV1RonxdTafxrQPsbob3D5tXRhZh97rHNTeXPuZX4v6fQLczs+fb4N40N9eO7gab4onZ9lQHkxyv7G+nNty6OxmJtgDaTVtFudofYswZDyYhAmTrzc0xZTVQYf/BzJzyW9dVvPpqyd5KAjLmly+HljToU0obDitcmuWKNi3+ZbbK5w1IohQTaYqVKY+dNlVhSWBk6JsD7+TGxsTpADXMoqEa+n8mJQtJMaYKGwSesAYv/bXfdvTgtG3MuFyY3taWsOtyITyowJIBVk8XtkPlg40ElruEqSBBs3RvLJlUJcA5ox/+UunJ8RxPxH3emr6w9lKGKTmBdb7oWqtERWRgkwscLfWSv/4kymf3Wc1j/fLKscACRVNjtj1KCwxNdJ3xVyWHMkq6yylyhm7bFkkoCWHlpjXAber8F42NHGDDIuxZdVPgAiJ5Wll4rAzI7QxlWfLgR06x/ANE8FN49d4c0rlSoMI/VXxCazIK7cr4rSk1h1Q9f+AJgo6dlMQhWdwV4NUJzBgZsCs2ZK+uofzGlwaus/98Q+DYmnPcFmkHEprqzyh7v+P39fHNsic8m31ko3urzUEqP9uZblsaEx0J6lNJg/OFnTwhyKricyP608/+w7cayLr7mhKoSCQUNbMcPLhBtHLjP1VEGl+RsSJgpAI9AeIJUkwe5915iw7CYrs7Tk66m8VOihatT6mxsKF08A1DEXMG1V5Si2XqrKs4yMDFZdy0enfSVyiDboSnXEwhQ7AG9Pvvq/itrYNDIBTHGwqniKVJTHd3+cZJWnM0+GONGnuSMDeigZ0tWT9asjefm87hCBKkdFqlaaJEF6nhowwbrSfhgCE0IDXejjYUUjawWldbh7YwUgob/zryIxq1JSWiYbI81pEl+EJARCkoy6X4MwN8UauJOr28VNzFUBVjr3C4CrG58+ZkexiRW92tkgEm4xfWsWeZV7Dkbqr8pRkVbJ/hn5+u2Pl5LO5nAuKoMcSUJCsCsqC1oo6eUNG+6pg96l1v5zL+zTkJT0vPT5z41zN5l8Diq/MDSuvNRWHyP9ubblsaExwp7QgP5gY4YjkJ5dWKGOlKRiErKqjxlCQPOOLfkq1IqcqOtM3ppFlo4N89hyMY+J3V35bJoZj17J5GJSHpGxWRxJLKKg8r3WU3mpEFCLqnjXKTm4Y+rdhqKzu0FTjIlfOzC3QmQkob6wH4XSHdPgPnrPrSrPMpKTeGNDFesO7+WM0ZJLOTd1Y0xTfQIavepIEsTHpfJ1XCpfhYOnT2O+HePD48P9OXvrAvMqF6ZaIkxseGtKa16qhx1PpNx03l2eXq4wGH2/tb9oLUT0ySiVjOxYvoY4OSGbq8V68mto/YH2/kqcURPn6cGc/iWJ9gpyMaervw1E59XtAg3JPbDPg0R9lhe9GOvP+uT0lUdjEYIa5iI9mFT3vreGU228vFgw2Amb1HieXZ7ANT2ToyQJDu2I5Ll8b15s58jgbkoeLzmmysxgafh1Zl0sKG/M1FN5qRBQi1XFFBdp9M70Ne04BICic7spOre7XHFzK0ybBenNvLhIU08Tku4BJU/x/I4IBh6o6r1G9RaVJIi7Gce0PY6cHKrksSBz5h027iVki65+TGtiyu1zV5m2NZnT2eUt2buzRo3Ktpx6uN/a5F+tiD6Zko0d8k1smPNCW/4V4secM6d49UYl4QbWXwhz+vrdHQNrE9KUNpWO2/gq8RK53CotZaIWt3wvd9lr6Of7gHGvyku1IvdjF8XCYnIBe+uHbA91tUANWJjozrQ1N60m2No688OYpjRXZ/DRnzfYUVC1rKRRsXX/NbbsE1jbWtLazYb2/q5M6uLCxJEtiP3+HD9llGZ895+6lhedyJmfpT8zycwCs24jsBg8FbNOQzELCcO8x2gsh/0bhVdrvedUldcDSaGabMDJ2qxW4gEdWxD+XGvebqZ7LDlLhQpwtK1dXpURQhDS2AYFeazdk8SpHMoqByHAxrweJnoZeL8Go1KTBzjZ6ObvbmMOqMlVVX26pMnj0/Wx3MSS0Y950920Um3V0PpbKenmAapLV/CbfRDPdw/h+e4hGs8+xH8uasDDkTDtIaCS+7W3NcNSq2YVAtxsTYFisu9lcWho+zQ0quIq/cc/xJc/x7VkRtO7dr4n5aWO/txgpBRwG3BytcGtuohugD3vCRkFxAFKD1uaaust2RDcSH/gEgorXh/bnAF2BaxZdZkfU/SK6SBJEvm5hUREpzFv+2VePJILZnZ08da6Tj2VFz0BVUVxUdVj2AoHd0z9OmAa2AOTpq3ARP9AenGRhvys++FhuiTnFQFmeCiraWHEZXFaBZ6tGzHISqtCVFjwn8mduT6rNc/blqffyhM0b6pkXE93miu05CVznumgxJJiLsfpbptYGyRJIjGnCLAg1MeiQtPXppEHY33roWdh4P0ann82Z4tA2cqDJ7U20pJsnXmqlRkUZRMRW30W+bdjeOtYPpJTYz4Ns6v49YwG1t/KX0l7BVyMqbg0SZLgwM1sUNjTw0/rOaRkcSYXFL6NeN61PN3KvTFP+UqQk8VRvfuXFJFVAGCKU33OUWno51tGw+l/rgiUgZ5M0JrkJ8zt+FfvRvRpYYlp7t20upWXWupfD/7cIGSncyQJpKbODLOrRs4Ae9YVB18vtszswvWZbXjXp4rGTHY6++IEeDbh+zBHWllL2NtaM/b/mhFmpht/hFAweGgrpjeFMzsv8toV/bvolclbOvP9i23ZPdqNZhWGFyTcbO42cLPy678+0RknEEKQlZyHo4et8SNCArKS8+r126jC3YXPOtlT2n4wd73bPWjW2oev3EofQAEbtsWyV1VR8fMXU7nZvSkD/q8tS5pnkVI2Cp3DnxsSOSlJUJjKp7sy6DrInXnTbTl6I4dEjQneXko6OCqIPnGHVVobOORG3uLraEfeae7P9lfcOXIrjzRhQrOmjrRzNCHr5g2+iDR+n9KjJ+O52KEZ3f+vHQfbpHMuXWDpYEPnpsUcj1ZDS6OyLcfA+zWYghS+3N+YzmEufDHdmpHXs0nCgmA/JT5WxZzbeYtVhdXnL0mwb8c1VgcEM7KrPzPPn+F/cQ2vvxCC3n4OWFDAyZu6SsbGZHELBzr72cOFTJAkJLL5dkcajwxzYubU9vS9lk0C5rRvrsTTVMWuDXfYr0cZSdJw4EYOah8l/57cmo7xRdytKorYvSuaFRlGPoCGfr4G6m9w+c1P4bO9HoT2d+Ljl9sz4no2d9QmtPR1ItAWbkfcZEFquf7Glpda278e/LkhkKQClpzIYPIQJVMHOLFqVVqFSTJlGGjPutA9xINgWxPAnqdC7PhvdKaOjCQV8sPm2wx6xouOfVqzs2QKTn7sTRbfsueFwEonNPJkVqgVJqpckpQefPxY5RyL2L//FusyS24gP5ND6b6MCPJns6szh+4UkiMUOLrY07OZBcVpcazUnlRYT+VF78B7UYGarKQ84744IyArKY+igupbEAbj6Mjojm5U7g+7NXNnTNmwaxZRe2LZW6ljrLpzi0krJN7v60qnEA/sypY8pHBkQyInuVt5Rx6O5LGsuztldGrpSkeNmoTUTBbvv8O3J7Mrzq6kkB9/O83Fjk14oa2SAH9XHE01ZKRns35XHF8cTONGHXYSUSXE8vTiYt5+pBHd3Z0Y5FlMfHwGC/6M5mRgOx41OucS/Q28X2Pyj9h7nlFZd3eW6dDSjY6oSUpKZXHJzjI1buoASEXZvLsxgV7jGzH58Sasn3ubc0JqYP1t6OlrDqokjuvbnDg+g4j8pozwcyKUTCJKkqNOXmJ4flPe7OlKlxautEVNfHwS3++/xRdXCquciBF54DKv2fgxPciOR0JMS4JOAclHo1mRofeUGmno52uw/gaWX0mCU/svMCLTi1e7ONPR35UQTRFxqen8tuPuzj7amxDUpbzURv/68ueG4ObxKH5s25ZXQlrwZ/Zlnt2RQWylusdQe9aFoxcSudjCAz9yWXkhu0q5/Nu3Gfx9Bk+GOBFgA6nJ6aw8k0nHEd66wqaKu1uJm9vwaEd9QwkF5J66xbqS2C1JapatOo+mjxeTWzvQp60TNlIxGdkFXDx3k593xrKvqOLIU32UF2nOnDlifvEjeg+aWZpi72pd62+iFhdpyEpugGAqIyMjI1MlwsaBLya24il3E7KS0th44CZvncl7KD/iMGpMN75pncfX35zmi7SHS/9qI2VRgZq0O9nkpOZXu55Uo9aQk5pP2p1sOZjKyMjI3GOk3Exem3eaVw6lkal0YlywLQ/jdDQhLPB3lkCTzy0jR2fuJzXOtRZCkJdZSF5mIaZmJphamKAomeqsKRaoC4tR17TtlYyMjIxMgyKpC1mx7RIr91jQ0xXqstv0vUAIBQN6NmOgY0mCJKF0c6RvI0g+l8R2fevPH3AMWrykLpKDp4yMjMyDjFAVsj+Wh+BTiqYEtfZgjGfJT6EhKyufE0dv8r+daWQ88Prr8pCtBpaRkZGR+TsgSSq+mneIr/Qfvcfa1A/18ykYGRkZGRmZfzhyQJWRkZGRkakH5IAqIyMjIyNTD5gCxP63+/3WQ0ZGRkZG5qFG7qHKyMjIyMjUA3JAlZGRkZGRqQfkgCojIyMjI1MPyAFVRkZGRkamHpADqoyMjIyMTD1g0E5JaYXFJOaryS3ZKN/GVIG7lSlOFiY1nCkjIyMjI/P3psaAWizgdGo+59ILSS/Uv4+vo4UJwY4WtHO2wuTh3DFKRkZGRkamTlQbUOPz1Wy6lU1WUdWfbgNILyxmX0Iep1MLGOplh4eVvEWwjIyMjIyBFOeScOMa1/Jc6RbiycM29lnlO9RrWSpWRGfVGEy1ySrSsCI6i2tZqnpRTkZGRuaBI+0AHz/5CI+M/ZRD6fdbmb8PBUkX2LV6ORv2HOdSYv79Vsco9HYl4/PVhN/JQa0RBmeo1gjC7+Qw2sde7qnKyMj87cjdPZe3l+8CdtFo5Et0f8Lmfqv00FMYd4zNW86QYuJKUO/utPVzf+h6p6Cnh1osYNOtbKOCaSlqjWDTrWyKa8win2ubPuNfg9rh7WSNpZ0HrXqO4c3Fx0mpfce4BmL5OUxCkp5jS31l+YCTv/lf2EkSkmTNlA2591udB4AIZvlJSFINf36ziDD2EslLGCpJSE+vprA+Va8HGtYfalm+bnxPN0nC7uUd9Xz9umJ4/WAT+hjjAp1wCpzA4x3vdzD9G9RvBdEc2HGGFNMm9Bj2ON1bumPzkPbFdNQ+nZpf7TBvbkoi6bEx5GekYe3kirNPcyxt7XXksoo0nE7NJ9TFqoqcirk6fxTdnt9MqlsoI0Y/TzOLTM5vX8Gnk9YQfn4bB77sh4PRt/ZPRcOJPeHkOPviK24Qvuc4xY/1fShbe/WHO92ef4d3skp/J7Dvp4UcpAdTXuxNo9Jk+2643x8FGxDZH+qdZmP4I3LM/dbib4Ig4fQRogrM8O7Tl9bKh9szdQLq2TT97eviokIubl3L7dNHK6SbmJoRNHgknm0765xzNq2w6oBasJMv39pMqucEVp9YyAiPElUK/sNnj4byxlez+f2lfrzkY+Ad/eO5wN4tsSj6fMeM4unM2LKP81/3pe39Vuu+0pTBMz9gcNnvCGYtW8hBejP1gw8IvY+aNTyyP8g8wIhEoq5ng3VrQlpY329t6kyFId/UwmIyVPqXxkSGrybu/EkCHnmMfv/5L4Pf/Ybe097Gq0M37D2a6D0nQ1VMahVLbbh+hiNp4PjEBIZ7aMV1yyDGTp/K4483QpNSecw4l+tbv+Plx7sS6OWE0qMlnfpP5MN1l8mqIKo9xNeEF3cDLGBwpSG+kX9WnlFQyM1tX/Hi0FB83eywc/Ol02Mv892u21SYZnXmAwIkEyauLX1xfohXPSSkxq9zuCRF7HkFJymQj84Zo38GK8baIUlevHGoSMd04swHBEoS1mP+IqPywej9bLsI3XoOYmCvrnBlG/ujdLIoIZ+o8M+ZOiSUZs62OHgE0PnRiXy49iKZeofrDZWvpT1LKU7k0Lz/MKxrG7ydLJDMlHi17snY2Us5n1kP8gaTy5V1HzKlfwheTtZYK70I6T+FjzZcJc+AXJI2PYe3JOH51AriK9jJAPuUDZluJ/HAV0zsHYC7kxstOw/h5blHSa6imNXaH85/QhtJwuvNQzqHDr3phSS14ZPzpSnGli8AYYD+DWUfY/QvHVqtzT2WYmh5aej6zRB/TmD+QAnJ4gW2J+3ns6d74u9ih51HIGHPfc6uO7r1klFkJZCQB6aNPXGvccllERnREezasJzfFy1g4eI/WLFuO8eupeq+Zsk4zap581iw5ya5d06yffUf/LroV/5YsYE9Z+PIM/6NZjkij9jTu1i7dDELFi7mzzU7K/ZQkwv0l8qspDjunD1O4IARNOvcqyzdxtmNVgOGV3vN5IJinPVt/FCQTy7g5uhAZTs2HfkN60ZWPkHFxbmj6ftCOLl+/Rg+bDKDpVTObl3JrOEr2PTRAfa+1QELAFwIfXoGMzIBcjm3ZgF7bgcxbEYY3lo5tvIz1/qlJurXJ+k6eR2ZPr0YOfI53KUkTm6Zz4xHVnFgyWH+Gu9zd6jMrwVt0HD5xi2gJSRd53KeM84Fl7ieDN1cITH6GumKEFr6GaO/kiHjx+H01zx+X7Gf/3UPo1xTwekNy7iELRPHDkZZyUpJ+3dwGD/m9PCnheiPL/9l54FEpvtVHsxUc2XeSLpPDSfVtQPDRz6Lj0UGZ7esYNaIv1j91k72f9QD2zrI19qeABQT+e0o+r96AKuQYYyeNBRnCzWpl3ew/INx7DqVz7HNU/AxWt5Qirj4w3B6vLyDTI/OjBzzPI2leI5uWMw7j6/jwE+H2PhCQI0LucWdZbw4ZQG3fJ9jy/ej8ShzdkPtU0LCn7w89hT5gwbyVFA8h9eu4ocXthOReZL9bwRjVkm89v5gCMaUr4r65w0ayFNBcRxas7IK/RvSPsbob0Pw6Hd4p+vdXwWRq/ly3eVqbGRoeWno+s1Yf07g12mjOJM9hCET2pJ6OpyVC2by6IFYdh37hj51fSeXl0suYG1rU8O2fRrSzm1h/ZF4VOZKmng3x05RSOqdGM7sjuFm0mCGd/dEx+PyrrBvVyrFnk3wdcwj8dZtrh7dRIpqOE90dK3TVoHpZ7cSfjwZjYUjTZq5YyMyYc6cOaKUiJR88cX5FJ2/GUs2in6jnhYfHI7Se7y6v4iUfKGXE+8JXxAt3zuh/3hlCveLmW2aCq++/xUncrTSc06It9sisHhKrMnWd+Id8VM/BDwrwqvLP2ezmOKMULR9UxzJ0krPOiLebKsQuE0V23NLE0+K2f4I2xe3imIhhDjytmjabZKY1K6peOfoXYnDb3kLgv4nzhmrf+EB8YoXAqfnxJZcrXTNKfFuAAKnZ0W4droQQohcsXqClcB1uthTJIRQ7RIvuSKsnl4lciqLZq8XE+wReE0Ua+KKtPQ5Jd7vbCqgj/g5pg7yBtlTCCGuiM86InCaIjZXeI654uhP08Szz84RWxLqIq/NCfGOLwLfd0SV3pe1Tjxtj8D7WbExUV2WXJy8WfzLB4H9M2KD9nWTfhNDQDBulSgoTSu6Ln4a6ChQBIrX92VWzN9Q+0R9J7qCMHUeLH68VF6miu78JZ5shMDmObFFVfkmDPCHcx+LIBBN3zioY4qDbzQVECQ+PqdzSNS6fJXq7zRQfBuZV5asuv2nGOWqR/97Yh8D9K9E2h9PCEA88UeafgFDy0tD12+G+rOIF/MGIMBC9PggotxfNOli54yWAhRi4Pw71V2xdsTsFb/MnStWRlRhx1IKr4utC+aKub9tE1dzirXSE8WRFfPE3LmrxFntIpZ+SqycO1fMW7RenE4pt39x9mUR/utcMfeXneKGVjYGUxwjdi+aK+Yu3CQis8ozMixAi/roJ+snL2IJs2bNqvD31zl1uYB5Tz49d4uY3bMJ1Z5YZxPKo/3coPASUXfqoMCl4+xJhfZjx9PFTivdrgvjx7aHpN0cvVKa6EfzNpBzJZp4IO36ZVIChzAoOJ7L19OBbKKvxaAIDqCsg2qo/ubdeGpSIKQtY/n2stk0aE5t4K/L4DFuDGGVXzkUHWXPlnxsBvehkylg1pm+g6zI37KXY5VHaCKPsycLvJ56ruKQu007psyezdSprbHOqIO8QfYEKKa4CDC3wKJCM9mazi/8wC+/vMdA97rIG8ilCPZngdfYSQx1K+8HKVwG88wYL8jaw/GL1WWg4txXk3h1ay6d3vuN93tVmrhnsH3uou7zFE8HWJb9NvV8gqcfs4LcC1y7XUnYEH+4R6j7jOOZwPJ5FWZNRvPMMD363wv7NCSGlpcGr9+M9edeTJzcgTKVJCVhE5+mJRoOnI2sg0IGkppAohqs/FrT3EYrbJm7ERQajL+/IyZ6pv8It+YEOpfbX2HbnICmCihOJyNLV77WZKeRpgKFdyCt7Mr1qVAV2Zjqj69Kz7sDCXEXTuHbrZ9B160qz8oUXtnAhx+urpA2MXQ2TwZrqajJ5NKuzew/H01cWj6lA9SxRwqAItR1qSSyM0kB2D+fWVm2FQ7lnEkDUkgrKwAONG/lA79GEQOYX7tAcEAQLVWtuXAtCjAn6iIEjWtBhZhnkP4KQsdOJvT911i+LJyvhz2JEsHJ9cu4iievjeqlO7xxdh/hydA/rEfJdW3o0a8/LAln75nv6NdRa3A9N4d0oI2bi44pPIe8y89DKiUaKm+QPQH8GTSmE7Pf+omxPVN4elhPQgJa0KpNe0Kau2Ch837FUHkDyc0hA2it535d3DyBSHL0rUA5t4w5s05jorrC+q8PoOjzJYvfDEVnap7B9rmLrYcbFUOzKUpHFyCb3Mr6GOIP9wjbxu6VZu6bonTSo/+9sE9DYmh5gYat34z1Zzxxd62U5NWNyVOnEh3ihIZ79IWVIjUqQGmpO3HJ1qcLYVW82zGxtqpUTyowt7AAVHWzZ0E+eYCVtVWFV5YVAqqrpf4py3ZujfFs04GruzcjNMV4tu2MmZU12Ynx3DiwHTv3xjTvM0jvuVXlWRnHcasQ4+7+P2HRUDymbK4ooLrAD8MHMCM8jnpboqqNEGiAG5u/5cPN+gRsK3TQ/VoGQ/w1otNzMbkcQ5vxPvgVtObaqihyC624flVBcPkLVOP0bzmGKWEzeWHdUjYmPcl4l5OsW3YF/N5idDfd91NX9m3jBq40P7WYzxNKEuMKceUG2/Zd4b8dA2p75bpjoD3BjJBX17NX+SmfL1zN3FkrKJ3yZR/4BG989y1vhnlqFV5D5Y3Tv2o0+gdszq/WmrwDLdq1x0vPq0TD7WM4D5Q/GMo9sM8DxT2q36qmCn/Wh1M/Zv5sWMeqSiQJCRA8ZA+zCnUr1DfOFiYozfUHwMDBo/Bo3ZYruzez+6t32fbhaxxe8CVpt6Kwc2uk9xyluYn+CUm1RJLKY//t317nlfAk2k1fzaWUfIqFQJT8HXyjqdHX0LoYCmDAvDtl+Vb8y+YbLR9y9W+FB5eJjoni2oU2tGpujo1fAP6R17gRE8UldSCtW5SP3RinfxNGTByGuWozS9fHoolYz1/XIWjCSEJ1Z2Owb8cxIJlt38xk5sySv2+2kQwc37mfBN0LNBwG2hMAs0Z0n/o1607EkJYaQ+Sx7Sz9bArNY1fzzoip/BlbR3kj9K8aBZK+Dt64VRQIgVBd4vOeFlz9djqfHNMzJ9gY+xiEgf5QUrFVjaT/fhuKBrfPg8W9qt+qpgp/bmjMTDEHCgoftO1QakBhggLQaCpO5NWxcYiThd7zzSwsCRk+nh5TZxI0dDQtw4bSftQk+v77PRoFttN7TlV5AWBphQ2QlJah03JKSrgN2GJvV9q0F1w8cxA1XZn8yggCnC21FC8mLzen6uvUFjsHXICE1NTayfu1IIRrRF2K5Ep0G1r6AH7NCbp4hauXorioCNaa4Wu8/m6PT2C0g4atyzeyYfNKbtCW8SPb61Z+WQfZtQdsn914t0Iv+ytk078cYM8uDmq/M7CxxRGITUrRuead9e8wadJzLDwrjJc31J4VkLB08iKwU3/Gvv4Lf87uAllb2X+6qj2iDZWvBTa2KNF/vylJsYAjdrY6h8oxC2D6D+/TSXGeT6Z9zunK9UWd7FMLjPAHByA+MbnSkpRCkhLiAWX191vfNLR9GhqDyss9qN/q6s8Nhb0DDkBeejoF1cmVBN68At3Gafb1Q2zfvpPzSQ2koz7sbLEH8lNS0R4p1wmo7ZytsDerui1j79YYr/bd8Ov+CI1ahWBipj9o2pspaOdc1S5JgF8IXRwhffWvrI4tn3wk0nex4LdzYDWQbmWrzyVc3JoAlzl0PKFCbzv/6hIWhVdXcdrj4ASQQrqedy5ltOpCmDOcXbqEg9qLxIpuMn9EY5zdRrFU+4G5N6eVm4YbO3dyoXUA/uaAvT8B3pfYufUiuUGtKV+nXAf97QYyYbwH7PmR2auuQJfxPBGoK1Z4eDfbVNCnWygVn4g5nbv3AdU29hzRuk5gJ/raw60/57MmXmvyV+4pFnz0GYuXRKF2koyXN9Se6wRXJQAAIABJREFUWVt4vW9v+k5bTlyFFlYhKckZgCMO9mbGyxtK6f0u+5VNSeWtUE1KOL8tvwUO/eis5zloYx78b36c1QHNyQ948etzFQOVofYxEIP9wbsjPXxBvXYRv0eXp6uiFrNgrRr8e9HJS9+Valm+DKWB7VNOA+lvUHm5B/VbPfhzg2DtiaczEB/NzeoWdzs3wt0U8qMiuZarVeBViVw4FUl0dBbCsurTDUEVH8H63xex6PcNRCRUYXsrT7zcFJBwhr2n7pBZUIQqL1V32ZGJBEO97FgRnWX0fr6mComhXnbVfxvVqj+vfjKYNc8vZXS7K4wY0RNv0yQiNq3iQIwtfb6YzTCncvHgsdMJ++pFlo5rR9TKYXRrZkn+7ZOE77Zj0OAmcKOqC9nRJSwMi1XreH3IOA53dC25aRcefX0Wgz1LxGz68+YXw1k/6UvCQo4zcmhHGptlc23POtafzaPzrBkMcdPO14+WIbB440ZUQx8rWe/oS4s255m5xgbTR6fhqyVtvP4W9H1qIj4/fMyFi9DvpxH46cgIIvaGk0kwPTvpDr+7dO5JB9azeW8EPwzodrd3azeYtz8bzOapv/FEyAVGDO+Jj2UGZ8KXs+u6Ce3e/h/jtEea/r+9846L6lgf97NL702KLEUEERGxAIolsccae5JrYkximkmMJr97o0k0N+be9HJTjWjURJNo7BXsvSMKiFgQQaQjvbPAzu8PQBZ26aBJvuf5fPaPPWfOnHfeM2femXdm3tPS9C3Vp3kAQz2S+PLH2Qy8spspga6YyUvJvHGUzduvo+/3Hv/wl7U+fUsxHceij0eza94qJveJYsaUQShI4eyuzZxLtmbc8kWMaTKMqwH+b/3Iwq0D+XTpayybdIQ3vfVap58W0Yr6IO/PvM9ns37GOl4ICCTksaE4i9sc27yDyMKuvPDbPPy19rOb+X61lA7VTyvkv7mDD9aGUbOOpTS6aoVr9JaPWHKtpiV3Y/I7zxNgQovflw5v39qlPncElnj1dCLiRBIXLyTSdaiz5mJLAH03AgI6k3I2niObNhPj4oCZThlZiQlkFMuw9BmAl2YE3FaRcfMK6SUVQBpXbmbg76AtcJEFPQf7EbvnAslhIWysCQKuvg9VnZi8MvFNdFaL951+E50lYvLKmrmZp0jE7PpUvDCmt3C2MBAGpg6ix7BZ4v2NUSJfI22lyAr/VSyaMUT4OFsJc9uuwn/SArHy/F1x4f3ujeyTE0KU3RYhH8wUAz3shFHVdHID6UtF/L6vxCsT/ISrjakwd/AQfqPniI82RYpslWa2hxfYCED4fxZ971jVnj1E748j209+1XnxthsC+RixOkVbgmjxcW+q9htWaDmtOi3+pUDQ+2MRXedEsbi55zPx0ri+wsXKSJg6eIqAUc+ID7dGi1wt5W15+pbpUxTHieAvXhZj+noIOxO5QN9KuHgHiskLlouTSVrqVEvT36MZ+1CFEEIUimvbPhTPjewlHC0MhIGFo+g16jnx0Y7rQmMLsLZ9qNUUnHhLdAdhMvxbEVPn+bRAP9X7LE3nHdCQUnOfaGvrQ5lIOPQ/MXdcH6GwMBBGFi7Cb+I88f2xJFGuJZvay5rxfrVI/o7WTyvkP7xAmN4719BvgliboZ5xS96X+9G+taA+39uH+qzY3ejDbwdUOSJyx2oRFLRG7LyQJIq0tiVCCKEUOXEXxKEdf4i1q1eKn37+VWzctl+ci8nUeOdq9qH+dCReI5ekk2tFUNDvIjRD45QQQoiypPNi27pVYtW67SK00XZEiIrCVHEj8oI4e+6CiLieJGRLly4V77//vlZL3dwPjNdgrieXPjDeESSuYESXuZyetI7k7U+jufBdQkJC4i9MSTJnQg4QlanE0MYNz779CXS3bGKh3J+PRhd+dTbSZY6nFUMdjLFqZLWulYEOQx2MmeNpJRnTDiBm81qOqoyYNnOiZEwlJCT+fhgpGDR5Go/064JhfjyXb2bQUHjqPzNNWj8dGfh3MsK/kxHZZZWkl1RQVFE1YjXRlWNvpIt1G7bGSDSBuMzGX86C+WxmjrN60NJISEhIdAy6FrgFjKFL7wLS8/gLfGJQSfLlC9wuqPmvatqgqmNtoCMZz/tMRegmfokCm5ceZ7RZ0+klJCQk/srI9M1wqB+d6U9JOVlxV4jOqHJMCyFvmUGVuP/oDviQW+LDBy2GhISEhEQdTPCd8jK+akfuSxhGCQkJCQmJvzuSQZWQkJCQkGgHJIMqISEhISHRDkgGVUJCQkJCoh2QDKqEhISEhEQ7IBlUCQkJCQmJdkAyqBISEhISEu2AZFAlJCQkJCTaAcmgSkhISEhItAMtipQkxfKVkJCQkJDQTpMGtVJAeFYJl3PKyCnTHv/fykAHXysD+toYNf5RcQkJCQkJib8pjRrU5n4PNaeskuNpxYRnlUrfQ5WQkOg4KotIi7vJzWJbBvVW/AW+SCLxf4kG51Bv5ivZFJ/f7I+LA+SXq9gUn8/NfGW7CCch8Zck+ySf/GMUo2Z+xumcBy3M34fSjCsc3rqRXUdDuZZe8qDFkWgvSpII3bud7XsvkFz6oIVpG1oNampJBSFJhVSoRIszrFAJQpIKSS2paLNwEhJ/RYqOBPHuxsMc/uNtlh8petDi/C0oSzlP8O7TxBZb0nPoZJ4a4SGNTv8mKO9cISLxLncTw4m689cejGkY1EoBe+4UtMqY1lChEuy5U0Blk1mUkXDwO16fMgAPewss7LvTf9Qslm66TG7zB8btQBhL3GXIZE383JcQ1tpb3F3HRJkM2aytlLWn6O1ASfBLmMlkyGTGPL+rvQ1AMstHypDJXmRvY8nivmeQTIbZ6wfb+f5tpZnyq2HiP4mnvK2x9p7N5ACTDpWuaVou/5+O0nhOHowgU9eJIVMmM7i7PSbSrNJfhttHV7FixRbCc7Wf13dww8VUF11TV9wc9NvnprnhbFmxglVHb7dPfs1Eo1qGZ5U06uYtykwnJzmBktxsjK1tsXHrhqGpuUa6/HIV4Vkl+HcyaiAnQfyvTzF49lbuOg5k+vTncdLLJfrgZj54YiObF+zl9DejsGx10VqCPYNeXszi/Jr/aRz/cTWnGMLzrw7Foeaw+SDs74s89xMVF46GUGjTla4ijpCjoVROGi71/ttClyf4LfqJBy3F3wRBWvhZbpXq4TpsOD0tpZr5t8OiO2Of7P6gpWgXNAxqZLb28VNleRlX920nMfxcneM6unr4jJ+Bos8AjWsis8saNqjlJ/l20VZSu77MvtDljLGpXh5ctpCvx/vz/75dzC+vjeKNbi0sUatwZvzCDxl/738YSzas5hRDmfvhh/jfDxEeGFc4tjcZ+bDvWFA5nwV7jxP19XD6PGixJCQARDq3YgvAuCe9PY0ftDQSEo1Sx6BmlVWSq9S+NSY6ZCup0eF4jZqEo68/hqbmFGVlcCfsNOadnbRek6usJKusEhtt+1TvxhCdCvI54xlpo7bXxsCLJ996m6td72BaoKKOV7oyndOrPuOLXw4SfiOGOwVGOHv2YvC0V3j3X0/Sy6L+TYq4seMbPl+2iYMXb5Kp6kS3gNE88foi3pjkSdtfz/bJP2PPiwQ8uoqKmRsJ+/1xOt9TRxm39y/j8+/Xsy/0BnexpUfgBGYtWMjckc7UcY7Efc8g9/lEzdtP7ONXWLRkJXujsrHsFsAjz73Hv18MxFZb5z7+BPuvwqCXxjFWNRB27OfEraX0ca+XLupTevm+Q96iU9z5dHCdU6ffdmHIZxZ8cjmKt3tBlQs9gI/i1FOtYrxsVZ3rpv+WzZanrOrdSJB+8n/NlL+j9NMa+ZNZPtKJV4/QSJr6lHAr5Ae+WLaRfeeuk6PvhFevQCa9spB5U7yx0NiCVkTsvtV8u3wDh8NvkFJui6fPQCa/9javT/bC/F761uq/JfU5jZVjO/Py0bnsT5xJxP9bzMp9EaTrOdN/4nO8+/4bjHTSa6DcLSA/jbRi0PVQYN/klrxycuMjuRh1i5TMApRyQ8ws7XDt6UefbjYYqCfNDWfLxlByPccws1sWp89fIzmvHD1TGxTd/Rng64hxW7cAimKSI84Sei2RrBIwsnKi54BBWMasZ3+MFYH/mE7vmjZLGcPen4+SKNN+U4E7Y14aSZc6B4tIjrpI+I0ksgsKKanQwcjUEtsuPfH388LWoH4uFeTFRxIWFUtKVgFlGGDeyYluvn74uprX9Uq1Rj+qAm5fOsfF60nklMkxtnHGJ3AQFlrLVEDktvWcz6x7TvHQbCb0MGxCsc1HLpdTknaZM+eukJRVjMrACicvPwL7dcFMY8JTSW58NOFXYknJKaBUpY+ZhR2uvfzo62GDhjNai/7rGNS7pdqNaX5GCkmRoXiPmUaXAQ/fO25iY0ePMVMbLdDd0gYMaqfOOOuDKjyK65WT8FFLYj92CT+NrX9BJdHfPsbof57EqPcUHn9uIjYGFWRdP8jGD5/i8KUSzgc/j9u99OVc/WEqQ14/SF7nAcx44mUcZamc2/ULiyfv4OSPp9n9ilfLIlvUoX3yF0kbePX5Vdzp+iJ7v1c3phXc+vkfDJyzgzy3h5kx40XsZRlc3LuSBaO2cHLdGf542k3TNZv2O6/PvETJuLE86ZPKme1b+OGVA4TlXeTEIl/qN3EZJw5yBneWDvHAU4ymK//h0Ml05ru3xbndCf9ZC1iQB1DE5W2rOJrow5QFI3FVS9XDXct8SbX8xePG8qRPCqe3bW5A/o7UT2vkN8H38cUsHlj1rzR6K1/tuN6Ijiq4sWIGg+eGkGXrx9QZL+BmkEvk3k0smfYHW985xImPh2B6L72Sq0GPM/yVEIrcRzB1yhzGy7KI3LeZJVM3sefjkxx7x6/aaLRG/tbW5zR+fu0xIgomMGF2H7LCQ9i8aiGPnEzm8PlvGKbRyW0hxUUUAcamJk2EdVORfXkvO8+motS3xMm1G2byMrKSEog4ksDtjPFMHazQbBSLb3D8cBaVCie6WhWTfieRmHN7yFROZXqAbZtCyeVE7iMk9G5VI97FHhORx9VDx7DppCWxjiWuPj5oTJ6VphETm4lSr15jjSDz0j5CwjLRsVDg6uGKoY6K0txkEqKOsyeznGmTelGrfhW5V/ax/XQy5cadcHHxxFhWzN3km4TuSyDloamM97ZAw/Q1Wz+VpIWGsD8yF5mhDc5uthir8ok+eAwHe209eX06efjQs7qZqcy5zfWU9l/AJy+L5djBdCo6O9LFvIS7iYnEXdxPdsUUZgTaq7UPlWRF7mPXuVQqjW1xdvbASFZKVtIdIg4ncCd7ElP726s9A+36Z+nSpaKGsMwS8WVUpsZvwbrdYsRjs8SHZ25pPd/YLyyzRGinSBx900OAgfCds1wcu5UnKhpIWcUN8XkAAuvnRXBB3XzO/fiaeOGFpWJvmtrh/B1iljkC1xfE7vTanCvvBouX3BCYPyN21clHnQticVcEXReLCw0laWn+GWvFBBA8tUWU1hwrjxU/jrUSyL3FW8fz6uZfGCyet0HI+7wtzuar3/eseLuPXGA3VxwoUjt+6zsxEISuzXix7FqtzsuT/hD/cEBg8qLYq6xfiCKxdbaRwHa+OFouhFAeFvNsEUaztojC+kkvfyJ8QDgvOqWhilOLnAX4iE8ua1NUkvhxBAJeECHaTteX33qs+Da6+N5hZeLv4jFbLfLfF/20QP56ZP82XQBi+m/Z2hMU7BSzzRG4PCu2pZSrleuS+GCAroBhYnmCWvqyE2JhL2fhMvw/4oL6wym8IN7tg8DgSbFNa31upvwtfl9SxYoxCDAQQz4Mq60vqhxxaEF3AXIxdmVSY3dsHgnHxE9BQWJzWAN6rKEsVuxbFSSC1u4XMYWVasfTxdlNK0RQ0BYRqf6K5VwSm4OCxIo1O0V4Zq3+Kwuui5Cfg0TQT4dEnFo2LaYyQRxZEySCVu8R0fm1GSkzwsS21VXyROQ2lUeOiNy1RgQFrRP7Y+o/3GxxYWOQCFp9UMSVqR9XipSIw+LgwTMiTr2elMWJg2uCRNCGUyJZPX1Zsji1IUgErTkk4tXrf0v1U3pdBK8MEkHrDom4ItW9w+VZEWL3zz+JoKDN4lJOw0UtubpHrFixQuy52pC9aCHV8v/0824RkVUrv6ooThxaFySCVgaL66Vq6SsSxcn1a8XarWdFah39pFbpZ+VeEVNHz9r137IOmGj9yl9NjBn24W5+fs6TuDWvMMzdDtcBU5n/+R+Epmqbx62kshzQN8BAt24+A175gZ9+ep+x6oOqa2GcyAeXmc8x0a62HyLvNJ5nnnCB/KOEXm2D+G3OX8nl/z3HP/cV0f/9tXzwcL2+6bVQjmZBv5lPE2imdtwskKdn9oOMI5y7oZlrxbAnmeVV6zLRVUxn1iQjKLrCzcR6icvPcXRvCSbjh9FfF9AbwPBxRpTsPcb58mbqoZ2pGPYUz3jXzrvrOT3OM1O0yH8/9NORRIdyNB9cnnyRqZ3VKrRJX55/7z3mzu2JsfqqSP2H+OzyHRKOvIe/+sJhE38eGWEHZde4ldQGeVpdnx/m2Tl+3BNJZsnIZ2fRHRUnI6PbIFALyUojvQKM3HvSzUStWdO3w8ffFw8PK3S0NCvCrhveNrX6l5t2w8tZDpU55OZrpm82BdlkK0Hu6k0PNd+inm1PPO2a044qST67n3MpFdj0Gc2wbqb1zqsQKkAuR16nFdejc+8RjBo1EDf1epKdRqoSLD28cFQfpus74uVhCcpU0rTsmW62fnJzyFKBcdceuKn5gnWte+Bhq93zeT+otPOgh3Wt/DJjN7y6GoEqm5w8tYQ6TgyZOZvZ0wKps9BY3wFXR31Q5ZFXoJ6zdv3XMU0mutrtq6WiylGUcuUSXQeNaFGBGsoTAGMvnl1ziUf/eZBt24IJ2bODlYt28P1//Hlz8w6+GKceCcWDcU/05713fmTmQ5nMmvIQvb086dGrH727dcKgvq+iqJBcoKedpn+lk50CiKawLR6G1uZ/eQNLl4Sjo7zBzq9PIh/2Fb+87Y/G0q2CPDIBTqxkSX7dl6kwIhvIJFvLMnTTznb13Ea6WFp1Agooqi9P5HFC7sLokUOq58dMGDJiNKwL4VjEd4wIuP9xJE0d7anrJdTF0lqL/PdDPx1JUSE5QC8t9Ucx4d8sn6DlGlUe1w4HcyIqnpTsEmqaqeSzpUA5FW3pBLX6fVFgb1vvkMsg5sydS3xva+qtgug4yitQApaGmisXTN0CGemmeQmAjrFRPTewHH0DA0DZNn2WllAMGBkb1XOjGmJi3NRKZUHBjSMcupKLgctQHunvoOmqxgpXdyvCL93kyNZS3Ls4YmNlibWtHbZWxpqu+XIlSoCUKE6frjvxU56lBJSUaelwNFs/ZWWUAZaG9VsyfQybLG/HoWNkqKE7Y0NjIJey+kEkRBlZCfEkZ+VRWFpBTbenKEMFVFYZ0Hto138dvdsaai+4mZ0jil5+xBwJRqgqUfQZgJ6RMQXpqcSdPICZvSPdho3Tem1Dedaii03PcbzYcxwvvvc1d8N+Yf4TL/H1zHn4X9/Ok/f2rOjR+587OWb5GV+s3krQkk3UxEox957Oou++5e2RitqXVwga38qqatuAu7X5R23l06jav559++GibetVdf5xwd/yUbC2/E3b7DC4cXw/cdjS7dIvfJFWfTClDFvi2H/8Bv8J8GrbDTqS+6CfPxXKK/wwdQwLQlKaqHetpD3fF+sRLFzeso53g8hkyADBX+xhNiZuE/3U8oyLHDiZgNLShwkj1RebqSPHzm8CEwzCCL+WwI2IRET14h8dUwW9Bj9MgKtZ7a1ElUglaTFEp2nP76+m4nalMpOI4GDOp5Yia2BhWF2067+OQbUx0MFSX0frSl/v8Y8BcONIMDeO1LZg+kbGOPbqp/WWlvo62hckNYgetv4v8uOHB9ny5GY27E3nyefU/Lh6Dgye+zWD5/6P0uxE4mJvEHl8I199tJrF08pwvrqbpxXVaWWyJnrGcpqlt4Zobf5PbaH0t+kYlF/ny5F9eOvb+Xz6xDn+O6Bez7o6/zErktj3kkJLRm0ljeMHzwOw/5uF7K939u6hE6T9y6t2D251w9Ywsrbps6V0uH7+XCSufYs3QzLoO38rv/17PJ42hvfqX9Uq6zbeoKPfl9aip4s+UKpt+PRnRq6DHKhU1W9LBarKRrouxfGcOHCRTF0FQ8YMrOue1biHCQrfoSh8oaIkn7zcbO4mxxIZeYvwQ8cwfeJRvGucN7IqO24XOJMpvmaNZPp/k/zo04SmlmHZfQSjBrhhbaR7r71LPrWOPdpmL7ToX+Md6m2tsdYaAD0DQ3pPfZohcxfiM/Fxuo+cSL/HnmP4G+/j4N1X6zUN5QVw+4/XmDhxGt+FaVYuC3tHzIC0u1kNXC3D0NoF7/6jmfnWT/z+XiDk7+NEuFrYKhNTLIHkjEyNqzMzkgErzOpPS7SEtuav58X8Hz6gvzyKT1/7gvD67YWZBZ2AtKyGdNBG8k9x+CiYvrCbUiEQ935l7HnJAo4e5pT6HImJKRZAavpd6gYHKyMjLRWwbJs+W0pH66ejMTHFCu31J2nnYp577kVWR9YMGQRXI05RwUDmvDkNLzVjCpUUFxW2izwd+r60FnMLLIDinBwaDfNabXiLS4s1ThXEnubAgUNEZXSQjNowM8UcKMnMoo6nXGRxN7OBoaAql8uHjhFbbI73qFH0tGy+s1zXyBybzl3w8h/F6N7WUJFKSoaaMdfTr+qYlHZQsFwDfQyAktL6MZaVlBY/wDnUklLqBzOsqiMGGKiZp6zMuwhs6N63GzZqxhQE5eVNh9Gt0b/GE+trY4S5XsMP0tzOEZd+g3AfPAqHHr3R0dNuNM315PS1aShKEthbyzgXvJ0vv9lIorovviKF7b/uIAcbAnzVFvnn7+Wt4UMZ/tpGUurY4DIy7+YCVliYq80NePdnuDnc2fAze9QqliozhLUb74DFCAZ4Nyhe07RD/vq+b7BsiR+qix/y6teX6z74HoGMtIHI9es4laf2ApbfZuU0R2zsHmN9GxqIsjNH2K+EYYP86+7PQ58Bg4eBcj9Hz6pJ5BrAkK5QsX0Nv8bXHlfe+oVV2yvA42H6u2i7kzkW1gCZ5DQQeqxVdLB+aukg+Wvqz+8r2Zaq9sIWXWLVx5/zy7pbVFjXvNYyOtk5Adc5HZpWxzNXErOONSGNxT9tpvwd/b60FmMFChsgNZ7bmrayFhsH7HWh5FY0N4vUGghlOlcuRRMfn49op+2NytQwdv66hjW/7iIsrQHdGylwsZNDWgTHLiWRV1qOsjiLuDPniS/X5rWrXoSUCo6BYxjk1ISwynhObt3K1iM3KKxjnysoKVUCeujrq93H2gFHfciLvUayeuddlcfl4F9Y83Mw1xvTb1NYWmMjh+K4a8QX1wpUkXONmPT2dW00S//VyNJiuJZT+36J4niux5WA3AYrtTB8xkZGQD5paXUXCpTnRHMtSYtHoQH9a8xd68hgoosZm+LzWx3PV1cuY6KLWaPfRjUa9S++nraD2b8/ic+ltUwd0ZNOunnEHNvO7shsHKf+wluj1ZapmQcw1COJL3+czcAru5kS6IqZvJTMG0fZvP06+n7v8Q9/tRuajmPRx6PZNW8Vk/tEMWPKIBSkcHbXZs4lWzNu+SLGtCXMarvkb4D/Wz+ycOtAPl36GssmHeFN7+pOgclo3v5yKjuf+4qRvUOZMTEAR70Cbh7dwc7IYgYsWcAEu9YKLwg7FkIevjzU30HjbKcBD+HHToKPhfHDmEFVvTV5f+Z9Ppv1M9bxQkAgIY8NxVnc5tjmHUQWduWF3+bhr7UfZkbgyJEYbNnBWxOe4kyAbXWl68Qjby1hfGu9tR2qn1bIf3MHH6wNo6ZvWBpd5SOK3vIRS67VNI5uTH7neQJMALPxvPv5eILnrmV67ytMm/oQboa5RIRs5HCsDn3f/S9POddK4TtzPiP/9yrrn+rLrc1TGNTFkJLEi4QcMWPceCeoE8ShFfJ39PvSaizx6ulExIkkLl5IpOtQZy0LdAB9NwICOpNyNp4jmzYT4+KAmU4ZWYkJZBTLsPQZgJdmhNRWkXHzCuklFUAaV25m4O+gLbCNBT0H+xG75wLJYSFsrA4CrmvXnz6OqVyIrZc8J4rTV3IR+p0wLrjGudP18zPEqbcfrjVeAn17FBbFXL15nG058bjYm6Enq6Q0N5WEpEJklr3wVN/1oN8Fv/5O3Dl1jeBNd3FR2GKiU05e6h2S8yqx7tUHt7ZEujHwoJ9PBImXYzm4OQdnZzuMRT4pyTKs7OVQfwV6Tixnr6bfm7evrO7t5d4K5XR2TUfAHPeAXtQP79s8/Vcht9cjaddm7jg5YiErJiMxkaxSsOzth4faSMLWywe7q+dIOL6ZzbHO2JvrUl6YSXKaHgqFIcTXy7gB/WuNO9DZSJfxTqat+uKMrlzGeCfTpr+JKu/C0xsu4bXpB75dd4DQHau5U2iMc68RvPnjq/zz+eEo6nTkOjHxu0MEd/+M79Yf5o9lG8got8DFozsPLVjOv96ag3+dCqFLj9e2c8bxGz5ftpH9638kCxs8A57ho2WLeGNy9zYEdWjH/I37s3jZP9n+8Be8N285Ew/Op5sOgA5dn93A+c5VkYBC/lhJjp4D3Xo9ykebFvDKDF9av2f+Gif2JYDtfPprW3fkOZDhCvhy73GufTKImoGJYvpPnDzUh0++WsfuDcvZiz3eD83j+3+9zdyhmoa5hq5zVrM94x3+++sh1nybUb2YzAeH59tgUDtUP62QP/EYX370LfWdr9d3fMVHO2r+TcBzQbVBRZfuL2/hnNP3fLHsD/ZtXsEBA2d6+DzOh58tZN5Ub9Q9rHqeL7PpuBmff7SC4PMbWX3cCs+Bj7JkzxL6hgxhRVvl7/D3pfWYeA0mIGYbZ68fYp/JI4zyU2iJYiSQHb5LAAAdwklEQVTH2nccU80iuXj5FskJMaTKjTC3cKVPYFWkpHYKu46duze2CVFkY0PPrg332nTt+jHlCUdu3UoiuwSMLDvj7q7g7vELmokrVFQAsvIsbkVrTmMIYYq+p5pBxZiuQx/lEcuLRN5KIf56AkqVHkamZth1D6Svvw8OdRbzyrDsOYZpxtWRkhJiSJYZYGrpRN++vfHtbkfDE3TNQQeHAeMZo1cVKSk5rhAjaye8Rw7CKmY9CfWTFyQTfeU6qnoT80Up14lOqSmzA5Z9NQ1qc/UPgHEPho3M5sz5a8TllCAMbXDz82NgP/s6QV/kVr6MfVSfixeucicrgZsZeph2cqbP2P7Y3d5G/f5PQ/qXLV26VLz//vtaZWnuB8ZrMNeTSx8Yl5CQaH9KkjkTcoCoTCWGNm549u1PoLtlUwtm/5TEH17JgVgbBs6cjm87jZol/hw0Ouvd2UiXOZ5WDHUwxqqR1bpWBjoMdTBmjqeVZEwlJCTaHyMFgyZP45F+XTDMj+fyzQwe3FKXtpBHbq4AuQVmD/rLfhLtTpPWT0cG/p2M8O9kRHZZJeklFRRVVI1YTXTl2BvpYt2irTESEhISrUDXAreAMXTpXUB6Hn+BTwwqSb58gdv3IuyoKM1OJD4TTLp71pvSkvg70KLhpLWBjmQ8JSQkHigyfTMc6kdn+lNSTlbcFaIzqhzTQsgxNLNC0bs/A/u5tNucrsSfB8k/KyEhIdEhmOA75WV8H7QYEveN+xJmU0JCQkJC4u+OZFAlJCQkJCTaAcmgSkhISEhItAOSQZWQkJCQkGgHJIMqISEhISHRDkgGVUJCQkJCoh2QDKqEhISEhEQ7IBlUCQkJCQmJdkAyqBISEhISEu1AiyIlSbF8JSQkJCQktNOkQa0UEJ5VwuWcMnLKtH/fwcpAB18rA/raGDX6UXEJCQkJCYm/K40a1OZ+DzWnrJLjacWEZ5VK30OVkJDoOCqLSIu7yc1iWwb1VvwFvjgj8X+JBudQb+Yr2RSf3+yPiwPkl6vYFJ/PzXxluwgnIfGXJPskn/xjFKNmfsbpnActzN+H0owrHN66kV1HQ7mWXvKgxZFoL0qSCN27ne17L5Bc+qCFaRtaDWpqSQUhSYVUqESLM6xQCUKSCkktqWizcBISf0WKjgTx7sbDHP7jbZYfKXrQ4vwtKEs5T/Du08QWW9Jz6GSeGuEhjU7/JijvXCEi8S53E8OJuvPXHoxpGNRKAXvuFLTKmNZQoRLsuVNAZQNZpK6egExmz6LTNUdO8097GTLZk2yr6XhGf05vmYxHf05vnRBx3zNIJsPs9YPNSBzGEncZMlkTP/clhLVOGri7jokyGbJZWylrbR4dREnwS5jJZMhkxjy/q70NQDLLR8qQyV5kb2PJWvS87ifNlF8NE/9JPOVtjbX3bCYHmHSodE3Tcvn/dJTGc/JgBJm6TgyZMpnB3e0xkWaV/jLcPrqKFSu2EJ6r/by+gxsuprromrri5tBOX4nNDWfLihWsOnq7ffJrJhrVMjyrpFE3b1FmOjnJCZTkZmNsbYuNWzcMTc010uWXqwjPKsG/k5HGOTunLhgQQnJaEWACuQnEZdthZ5NAShrgBqSlEIcRDzvdjy8J2zPo5cUszq/5n8bxH1dziiE8/+pQHGoOmw/C/j5Ic39RceFoCIU2Xekq4gg5GkrlpOFS778tdHmC36KfeNBS/E0QpIWf5VapHq7DhtPTUqqZfzssujP2ye4PWop2QcOgRmZrHz9Vlpdxdd92EsPP1Tmuo6uHz/gZKPoM0LgmMrtMq0HVUbjgCSSlZgBukHiHWPdhDLM6QVJK1aGctCQK8cRZcT+2yjozfuGHjL/3P4wlG1ZziqHM/fBD/O+DBA+OKxzbm4x82HcsqJzPgr3Hifp6OH0etFgSEgAinVuxBWDck96exg9aGgmJRqljULPKKslVat8aEx2yldTocLxGTcLR1x9DU3OKsjK4E3Ya885OWq/JVVaSVVaJTf19qgonugIR1cPR8jvxxLgFMsdiExdSCgFT0lMTAXdcFOoXlnF7/zI+/349+0JvcBdbegROYNaChcwd6Yw2Z4G+jg7ZF1awZPEP7Ay9TblDPybOWcJ/3hyNk14ztdQgRdzY8Q2fL9vEwYs3yVR1olvAaJ54fRFvTPKkua9/xp4XCXh0FRUzNxL2++N0vrf1qAXljfueQe7ziZq3n9jHr7BoyUr2RmVj2S2AR557j3+/GIitts59/An2X4VBL41jrGog7NjPiVtL6eNeL13Up/TyfYe8Rae48+ngOqdOv+3CkM8s+ORyFG/3gioXegAfxamnWsV42ao6103/LZstT1nVu5Eg/eT/mil/R+mnNfIns3ykE68eoZE09SnhVsgPfLFsI/vOXSdH3wmvXoFMemUh86Z4Y6GxBa2I2H2r+Xb5Bg6H3yCl3BZPn4FMfu1tXp/shfm99K3Vf0vqcxorx3bm5aNz2Z84k4j/t5iV+yJI13Om/8TnePf9NxjZ9hcM8tNIKwZdDwX2TW7JKyc3PpKLUbdIySxAKTfEzNIO155+9Olmg4F60txwtmwMJddzDDO7ZXH6/DWS88rRM7VB0d2fAb6OGLd1C6AoJjniLKHXEskqASMrJ3oOGIRlzHr2x1gR+I/p9LaoTquMYe/PR0mUab+pwJ0xL42kS52DRSRHXST8RhLZBYWUVOhgZGqJbZee+Pt5YWtQP5cK8uIjCYuKJSWrgDIMMO/kRDdfP3xdzet6pVqjH1UBty+d4+L1JHLK5BjbOOMTOAgLrWUqIHLbes5n1j2neGg2E3oYNqHY5iOXyylJu8yZc1dIyipGZWCFk5cfgf26YKYxVlOSGx9N+JVYUnIKKFXpY2Zhh2svP/p62GjaFy36r2NQ75ZqN6b5GSkkRYbiPWYaXQY8fO+4iY0dPcZMbbRAd0u1GFQrJ7pYw+6UNJRAWuIt9Nym0s+kM1uSU4FupKXEg+1gnGoqHBXc+vkfDJyzgzy3h5kx40XsZRlc3LuSBaO2cHLdGf542k3DVWmQu415j52gYPRIHu+WzvmdW/h50VgiSkM5928/rUa4eZRz9YepDHn9IHmdBzDjiZdxlKVybtcvLJ68g5M/nmb3K15NbvQVSRt49flV3On6Inu/VzemrSsvab/z+sxLlIwby5M+qZzZvoUfXjlAWN5FTizypX4Tl3HiIGdwZ+kQDzzFaLryHw6dTGe+e1uc253wn7WABXkARVzetoqjiT5MWTASV7VUPdy1aL9a/uJxY3nSJ4XT2zY3IH9H6qc18pvg+/hiFg+s+lcavZWvdlxvREcV3Fgxg8FzQ8iy9WPqjBdwM8glcu8mlkz7g63vHOLEx0MwvZdeydWgxxn+SghF7iOYOmUO42VZRO7bzJKpm9jz8UmOveNXbTRaI39r63MaP7/2GBEFE5gwuw9Z4SFsXrWQR04mc/j8Nwyz0LigZRQXUQQYm5o0EdZNRfblvew8m4pS3xIn126YycvISkog4kgCtzPGM3WwQvN9L77B8cNZVCqc6GpVTPqdRGLO7SFTOZXpAbZtCiWXE7mPkNC7VY14F3tMRB5XDx3DppOWxDqWuPr4oDF5VppGTGwmSr16jTWCzEv7CAnLRMdCgauHK4Y6Kkpzk0mIOs6ezHKmTepFrfpV5F7Zx/bTyZQbd8LFxRNjWTF3k28Sui+BlIemMt7bAg3T12z9VJIWGsL+yFxkhjY4u9lirMon+uAxHOy19eT16eThQ8/qZqYy5zbXU9p/AZ+8LJZjB9Op6OxIF/MS7iYmEndxP9kVU5gRaK/WPlSSFbmPXedSqTS2xdnZAyNZKVlJd4g4nMCd7ElM7W+v9gy065+lS5eKGsIyS8SXUZkavwXrdosRj80SH565pfV8Y7+wzBKhyU3x5QAEI34USUKIUwsVwu+zKyL224eEwz+PCyEKxYbHEQz5RsTVXFIYLJ63Qcj7vC3O5qtllX9WvN1HLrCbKw4UqR2/9Z0YCMKk82Tx4/VaGSrvBouX3BAYPC4252oRTQghxAWxuCuCrovFhYaS5O8Qs8wRuL4gdqdXaOZv/ozYVaCWPmOtmACCp7aI0ppj5bHix7FWArm3eOt4Xt38W1leXZvxYtm12vKWJ/0h/uGAwORFsVdZvxBFYutsI4HtfHG0XAihPCzm2SKMZm0RhfWTXv5E+IBwXnRKQxWnFjkL8BGfXNamqCTx4wgEvCBCtJ2uL7/1WPFtdPG9w8rE38Vjtlrkvy/6aYH89cj+bboAxPTfsrUnKNgpZpsjcHlWbEspVyvXJfHBAF0Bw8TyBLX0ZSfEwl7OwmX4f8QF9YdTeEG82weBwZNim3p9a6n8La3PIlWsGIMAAzHkw7Da+qLKEYcWdBcgF2NXJjV2x+aRcEz8FBQkNoc1oMcaymLFvlVBImjtfhFTWKl2PF2c3bRCBAVtEZHqr1jOJbE5KEisWLNThGfW6r+y4LoI+TlIBP10SMSpZdNiKhPEkTVBImj1HhGdX5uRMiNMbFtdJU9Eg+1PTR45InLXGhEUtE7sj6n/cLPFhY1BImj1QRFXpn5cKVIiDouDB8+IOPV6UhYnDq4JEkEbTolk9fRlyeLUhiARtOaQiFev/y3VT+l1EbwySAStOyTiilT3DpdnRYjdP/8kgoI2i0s5DRe15OoesWLFCrHnqjZ70Qqq5f/p590iIqtWflVRnDi0LkgErQwW10vV0lckipPr14q1W8+K1Dr6Sa3Sz8q9IqaOnrXrv2UdMNH6lb91ccSpC5CQQhqFJMQl4+7ihKPCjbTEFIpIJzUR5F2ccKy55FooR7Og38ynCTRTy8oskKdn9oOMI5y7oXmnoiFPMKt7rQtB3mk8zzzhAmURXIvTTN9sroVxIh9cZj7HRLvafs69/POPEnq1sQyUXP7fc/xzXxH931/LBw/X65u2srwVw55klldteXUV05k1yQiKrnAzsV7i8nMc3VuCyfhh9NcF9AYwfJwRJXuPcb68mXpoZyqGPcUz3rXz7npOj/PMFC3y3w/9dCTRoRzNB5cnX2RqZ7Wxh0lfnn/vPebO7Ymx+qpI/Yf47PIdEo68h7/6wmETfx4ZYQdl17iV1AZ5Wl2fH+bZOX7cE0lmychnZ9EdFScjo9sgUAvJSiO9Aozce9LNRK1Z07fDx98XDw8rdLQsDxF23fC2qdW/3LQbXs5yqMwhN18zfbMpyCZbCXJXb3qo+Rb1bHviadecdlRJ8tn9nEupwKbPaIZ1M613XoVQAXI58jqtuB6de49g1KiBuKnXk+w0UpVg6eGFo/owXd8RLw9LUKaSpmXPdLP1k5tDlgqMu/bATc0XrGvdAw9b7Z7P+0GlnQc9rGvllxm74dXVCFTZ5OSpJdRxYsjM2cyeFkidhcb6Drg66oMqj7wC9Zy167+OF8FEV7t9tVRUOYpSrlyi66ARLSqQ9jyNcXJVwNYU0ioSuRPrgJuzBUa6zjjfTiIFF1Jug9tI59p5j4I8MgFOrGRJft3KVRiRDWSSrWVZtql9J8zqHetkpwCiyGrLpvuiQnKBnnaa/puq/KMp1ObBuLyBpUvC0VHeYOfXJ5EP+4pf3vZHY+lWa8vb2a6e20gXS6tOQAFF9eWJPE7IXRg9ckj1/JgJQ0aMhnUhHIv4jhEB9z+OpKmjPXW9hLpYWmuR/37opyMpKiQH6KWl/igm/JvlE7Rco8rj2uFgTkTFk5JdQk0zlXy2FCinoi2doNbWZxTY11+I7zKIOXPnEt/bGhX36Qsc5RUoAUtDzZULpm6BjHTTfpmOsVE9N7AcfQMDQNk2fZaWUAwYGRvVc6MaYmLc1EplQcGNIxy6kouBy1Ae6e+gZWrKCld3K8Iv3eTI1lLcuzhiY2WJta0dtlbGmq75ciVKgJQoTp+uO/FTnqUElJRp6XA0Wz9lZZQBlob1WzJ9DJssb8ehY2SooTtjQ2Mgl7L6QSREGVkJ8SRn5VFYWkFNt6coQwVUVhnQe2jXfx292xpqL7iZnSOKXn7EHAlGqCpR9BmAnpExBempxJ08gJm9I92GjdN6bUN5Orp0g4pE0tLvEH/Dkz5OgNwJ99jrpJakkZwKHs5qK5KEQAXEBX/LR8HacjRtvwF0c6iWp2FU2uWJ2sqnUbV/Pfv2w0XbRO59KO+N4/uJw5Zul37hi7Tqgyll2BLH/uM3+E+AV9tu0JH82epDR6O8wg9Tx7AgJKWJetdKWluftWE9goXLW9bxbhCZDBkg+Is9zMbEbaKfWp5xkQMnE1Ba+jBhpPpiM3Xk2PlNYIJBGOHXErgRkYioXvyjY6qg1+CHCXA1q72VqBKpJC2G6DTt+f3VVNyuVGYSERzM+dRSZA0sDKuLdv3XMag2BjpY6utoXenrPf4xAG4cCebGkdoWTN/IGMde/bTe0lJfR3NBUjWOTm7IOUNq+B1ulbszqTMgc6JL/kFSYtJIQh9vJ7WFMTIZcmDMiiT2vaTQmud9pVqehpGj9bk8tYXS36ZjUH6dL0f24a1v5/PpE+f474B6PesOL28axw+eB2D/NwvZX+/s3UMnSPuXV+0e3OqGrWFk2svbUfzZ6kMHk7j2Ld4MyaDv/K389u/xeNoY3qt/Vaus23iD1tbnjkZPF32gVNvw6c+MXAc5UKmq35YKVJWNdF2K4zlx4CKZugqGjBlY1z2rcQ8TFL5DUfhCRUk+ebnZ3E2OJTLyFuGHjmH6xKN41zhvZFV23C5wJlN86/vsJPKjTxOaWoZl9xGMGuCGtZHuvfYu+dQ69mibvdCif413qLe1xlprAPQMDOk99WmGzF2Iz8TH6T5yIv0ee47hb7yPg3dfrdc0lBeAgcKFLsSTGhpPTLcuOOsDeo44d0kg+VIKt/HA1UnN3ptZ0AlIy8pqME9tFKZnUljvWGZGMuCAtWWLsqqLiSmWQHJGpsapqvytMKs/7aGOnhfzf/iA/vIoPn3tC8LrtxetLG+zyT/F4aNg+sJuSoVA3PuVseclCzh6mFPqcyQmplgAqel3qRscrIyMtFTAsvHytjcdrZ+OxsQUK7TXn6Sdi3nuuRdZHVkzZBBcjThFBQOZ8+Y0vNSMKVRSXFS/hrdOnjbV547C3AILoDgnh0bDvFYb3uLSYo1TBbGnOXDgEFEZHSSjNsxMMQdKMrOo4ykXWdzNbGAoqMrl8qFjxBab4z1qFD0tm+8s1zUyx6ZzF7z8RzG6tzVUpJKSoWbM9fSrOialHRQs10AfA6CktH6MZSWlxQ9wDrWklPrBDKvqiAEGauYpK/MuAhu69+2GjZoxBUF5edNhdGv0r/HE+toYYa7X8IM0t3PEpd8g3AePwqFHb3T0tBtNcz05fW00gzrcQ+GMO0riwyJI7OZK1U5WR5zcbxJ/KY1k3HFSH3j0CGSkDUSuX8epPLUKWX6bldMcsbF7jPVaXhjdQ7/xW0yttVJl7mXtxjtg0A/vrg2L1yTe/RluDnc2/MwetYqrygypyt9iBAO8G89C3/cNli3xQ3XxQ179+nLdB9/K8jaXsjNH2K+EYYP86+7PQ58Bg4eBcj9Hz6pJ5BrAkK5QsX0Nv8bXHlfe+oVV2yvA42H6u2i7kzkW1gCZ5DQQeqxVdLB+aukg+Wvqz+8r2Zaq9sIWXWLVx5/zy7pbVFjXvNYyOtk5Adc5HZpWxzNXErOONSGNxT9tpvztUJ87BGMFChsgNZ7bmrayFhsH7HWh5FY0N4vURoDKdK5ciiY+Ph/RTtsblalh7Px1DWt+3UVYWgO6N1LgYieHtAiOXUoir7QcZXEWcWfOE1+uzWtXvQgpFRwDxzDIqQlhlfGc3LqVrUduUFjHPldQUqoE9NDXV7uPtQOO+pAXe41k9c67Ko/Lwb+w5udgrjem36awtMZGDsVx14gvrhWoIucaMent69polv6rkaXFcC2n9v0SxfFcjysBuQ1WagMqYyMjIJ+0tLoLBcpzormWpMWj0ID+NeaudWQw0cWMTfH5rY7nqyuXMdHFrPFvo9o54WYAW0NDsZ71L6yrDqJwLWd1aBQqi0CcbdTSm4zm7S+nsvO5rxjZO5QZEwNw1Cvg5tEd7IwsZsCSBUyw07yN4TALDozoz94Jw3HXTefczi2cTZbT94OFTGrLCNV0HIs+Hs2ueauY3CeKGVMGoSCFs7s2cy7ZmnHLFzGmyTCuBvi/9SMLtw7k06WvsWzSEd701mtTeZuHIOxYCHn48lB/B42znQY8hB87CT4Wxg9jBlX11uT9mff5bNbPWMcLAYGEPDYUZ3GbY5t3EFnYlRd+m4e/1n6YGYEjR2KwZQdvTXiKMwG21ZWuE4+8tYTxrfXWdqh+WiH/zR18sDaMmnUapdFVPqLoLR+x5FpN4+jG5HeeJ8AEMBvPu5+PJ3juWqb3vsK0qQ/hZphLRMhGDsfq0Pfd//KUc60UvjPnM/J/r7L+qb7c2jyFQV0MKUm8SMgRM8aNd4IGV6w3U/52qc8dgSVePZ2IOJHExQuJdB2qPYAL+m4EBHQm5Ww8RzZtJsbFATOdMrISE8golmHpMwAvzQiprSLj5hXSSyqANK7czMDfQVtgGwt6DvYjds8FksNC2FgdBFzXrj99HFO5EFsveU4Up6/kIvQ7YVxwjXOn6+dniFNvP1xrvAT69igsirl68zjbcuJxsTdDT1ZJaW4qCUmFyCx74am+lVy/C379nbhz6hrBm+7iorDFRKecvNQ7JOdVYt2rD25tCURl4EE/nwgSL8dycHMOzs52GIt8UpJlWNnLof4K9JxYzl5NvzdvX1nd28u9Fcrp7JqOgDnuAb2oH963efqvQm6vR9KuzdxxcsRCVkxGYiJZpWDZ2w8PtZGErZcPdlfPkXB8M5tjnbE316W8MJPkND0UCkOIr5dxA/rXGnegs5Eu451MW/XFGV25jPFOpk1/E1VHgYsnZEVlMdC1RiFynFw8uLTmEvR7jLptrQ5dn93A+c5VkXFC/lhJjp4D3Xo9ykebFvDKDF+07iFXPMvyDVd5998r2BCWSLnjIJ79bAn/fbMtQR0AdOnx2nbOOH7D58s2sn/9j2Rhg2fAM3y0bBFvTO7e9NfbAYz7s3jZP9n+8Be8N285Ew/Op5tOG8rbLK5xYl8C2M6nv7Z1R54DGa6AL/ce59ong6gZmCim/8TJQ3345Kt17N6wnL3Y4/3QPL7/19vMHappmGvoOmc12zPe4b+/HmLNtxlUOYV8cHi+DQa1Q/XTCvkTj/HlR99qTC9c3/EVH+2o+TcBzwXVBhVdur+8hXNO3/PFsj/Yt3kFBwyc6eHzOB9+tpB5U71R97Dqeb7MpuNmfP7RCoLPb2T1cSs8Bz7Kkj1L6BsyhBVtlb+96nMHYOI1mICYbZy9foh9Jo8wyk+hJYqRHGvfcUw1i+Ti5VskJ8SQKjfC3MKVPoFVkZLaKew6du7e2CZEkY0NPbs23GvTtevHlCccuXUriewSMLLsjLu7grvHL2gmrlBRAcjKs7gVrTmNIYQp+p5qBhVjug59lEcsLxJ5K4X46wkoVXoYmZph1z2Qvv4+ONRZzCvDsucYphlXR0pKiCFZZoCppRN9+/bGt7sdDU/QNQcdHAaMZ4xeVaSk5LhCjKyd8B45CKuY9STUT16QTPSV66jqTcwXpVwnOqWmzA5Y9tU0qM3VPwDGPRg2Mpsz568Rl1OCMLTBzc+Pgf3s6wR9kVv5MvZRfS5euMqdrARuZuhh2smZPmP7Y3d7G/X7Pw3pX7Z06VLx/vvva5WluR8Yr8FcTy59YFxCQqL9KUnmTMgBojKVGNq44dm3P4Hulk0tmP1TEn94JQdibRg4czq+7TRqlvhz0Oisd2cjXeZ4WjHUwRirBlbrAlgZ6DDUwZg5nlaSMZWQkGh/jBQMmjyNR/p1wTA/nss3M3hwS13aQh65uQLkFpg96C/7SbQ7TVo/HRn4dzLCv5MR2WWVpJdUUFRRNWI10ZVjb6SLdSPGVkJCQqJd0LXALWAMXXoXkJ7HX+ATg0qSL1/g9r0IOypKsxOJzwST7p4o/vwFkGghLRpOWhvoSMZTQkLigSLTN8Phfnwmuc2UkxV3heiMKse0EHIMzaxQ9O7PwH4u7TanK/HnQfLPSkhISHQIJvhOeRnfBy2GxH3jvoTZlJCQkJCQ+LsjGVQJCQkJCYl2QDKoEhISEhIS7YBkUCUkJCQkJNqB/w/oeeev9msuowAAAABJRU5ErkJggg==;" vertex="1" parent="1">
          <mxGeometry x="1380" width="229.53" height="77" as="geometry" />
        </mxCell>
        <mxCell id="3FKu3UgbwwgSf9K0Oz-_-16" style="edgeStyle=orthogonalEdgeStyle;rounded=0;orthogonalLoop=1;jettySize=auto;html=1;exitX=0.5;exitY=1;exitDx=0;exitDy=0;" edge="1" parent="1" source="3FKu3UgbwwgSf9K0Oz-_-17">
          <mxGeometry relative="1" as="geometry">
            <mxPoint x="1500.3333333333335" y="610" as="targetPoint" />
          </mxGeometry>
        </mxCell>
        <mxCell id="3FKu3UgbwwgSf9K0Oz-_-17" value="&lt;pre style=&quot;background-color:#ffffff;color:#000000;font-family:&#39;JetBrains Mono&#39;,monospace;font-size:9.8pt;&quot;&gt;&lt;pre style=&quot;font-family: &amp;quot;JetBrains Mono&amp;quot;, monospace; font-size: 9.8pt;&quot;&gt;attemptAuthentication&lt;/pre&gt;&lt;/pre&gt;" style="rounded=0;whiteSpace=wrap;html=1;" vertex="1" parent="1">
          <mxGeometry x="1420" y="500" width="160" height="40" as="geometry" />
        </mxCell>
        <mxCell id="3FKu3UgbwwgSf9K0Oz-_-18" style="edgeStyle=orthogonalEdgeStyle;rounded=0;orthogonalLoop=1;jettySize=auto;html=1;exitX=0.5;exitY=1;exitDx=0;exitDy=0;" edge="1" parent="1" source="3FKu3UgbwwgSf9K0Oz-_-19">
          <mxGeometry relative="1" as="geometry">
            <mxPoint x="1500.3333333333335" y="720" as="targetPoint" />
          </mxGeometry>
        </mxCell>
        <mxCell id="3FKu3UgbwwgSf9K0Oz-_-19" value="&lt;pre style=&quot;background-color:#ffffff;color:#000000;font-family:&#39;JetBrains Mono&#39;,monospace;font-size:9.8pt;&quot;&gt;&lt;pre style=&quot;font-family: &amp;quot;JetBrains Mono&amp;quot;, monospace; font-size: 9.8pt;&quot;&gt;cast（FileShareToken.class）&lt;/pre&gt;&lt;pre style=&quot;font-family: &amp;quot;JetBrains Mono&amp;quot;, monospace; font-size: 9.8pt;&quot;&gt;controller层使用注解@AllowedToken({FileShareToken.&lt;span style=&quot;font-size: 9.8pt; color: rgb(0, 0, 128); font-weight: bold;&quot;&gt;class&lt;/span&gt;&lt;span style=&quot;font-size: 9.8pt;&quot;&gt;})&lt;/span&gt;&lt;/pre&gt;&lt;/pre&gt;" style="rounded=0;whiteSpace=wrap;html=1;" vertex="1" parent="1">
          <mxGeometry x="1292.5" y="610" width="415" height="50" as="geometry" />
        </mxCell>
        <mxCell id="3FKu3UgbwwgSf9K0Oz-_-20" style="edgeStyle=orthogonalEdgeStyle;rounded=0;orthogonalLoop=1;jettySize=auto;html=1;exitX=0;exitY=0.5;exitDx=0;exitDy=0;entryX=1;entryY=0.5;entryDx=0;entryDy=0;" edge="1" parent="1" source="3FKu3UgbwwgSf9K0Oz-_-21" target="3FKu3UgbwwgSf9K0Oz-_-24">
          <mxGeometry relative="1" as="geometry">
            <mxPoint x="288.3333333333333" y="730" as="targetPoint" />
          </mxGeometry>
        </mxCell>
        <mxCell id="3FKu3UgbwwgSf9K0Oz-_-21" value="&#xa;&lt;pre style=&quot;border-color: var(--border-color); color: rgb(0, 0, 0); font-style: normal; font-variant-ligatures: normal; font-variant-caps: normal; font-weight: 400; letter-spacing: normal; orphans: 2; text-align: center; text-indent: 0px; text-transform: none; widows: 2; word-spacing: 0px; -webkit-text-stroke-width: 0px; background-color: rgb(251, 251, 251); text-decoration-thickness: initial; text-decoration-style: initial; text-decoration-color: initial; font-size: 9.8pt; font-family: &amp;quot;JetBrains Mono&amp;quot;, monospace;&quot;&gt;上redis查看token是否存在&lt;/pre&gt;&#xa;&#xa;" style="rounded=0;whiteSpace=wrap;html=1;" vertex="1" parent="1">
          <mxGeometry x="1420" y="720" width="160" height="40" as="geometry" />
        </mxCell>
        <mxCell id="3FKu3UgbwwgSf9K0Oz-_-22" style="edgeStyle=orthogonalEdgeStyle;rounded=0;orthogonalLoop=1;jettySize=auto;html=1;exitX=1;exitY=0.75;exitDx=0;exitDy=0;entryX=0;entryY=0.5;entryDx=0;entryDy=0;" edge="1" parent="1" source="3FKu3UgbwwgSf9K0Oz-_-24" target="3FKu3UgbwwgSf9K0Oz-_-28">
          <mxGeometry relative="1" as="geometry">
            <mxPoint x="1755" y="828.6666666666667" as="targetPoint" />
          </mxGeometry>
        </mxCell>
        <mxCell id="3FKu3UgbwwgSf9K0Oz-_-23" style="edgeStyle=orthogonalEdgeStyle;rounded=0;orthogonalLoop=1;jettySize=auto;html=1;exitX=0.5;exitY=1;exitDx=0;exitDy=0;entryX=0.5;entryY=0;entryDx=0;entryDy=0;" edge="1" parent="1" source="3FKu3UgbwwgSf9K0Oz-_-24" target="3FKu3UgbwwgSf9K0Oz-_-37">
          <mxGeometry relative="1" as="geometry" />
        </mxCell>
        <mxCell id="3FKu3UgbwwgSf9K0Oz-_-24" value="&lt;pre style=&quot;background-color:#ffffff;color:#000000;font-family:&#39;JetBrains Mono&#39;,monospace;font-size:9.8pt;&quot;&gt;&lt;pre style=&quot;font-family: &amp;quot;JetBrains Mono&amp;quot;, monospace; font-size: 9.8pt;&quot;&gt;创建DelegateDelaySubject对象&lt;/pre&gt;&lt;/pre&gt;" style="rounded=0;whiteSpace=wrap;html=1;" vertex="1" parent="1">
          <mxGeometry x="-80" y="562.5" width="160" height="355" as="geometry" />
        </mxCell>
        <mxCell id="3FKu3UgbwwgSf9K0Oz-_-25" style="edgeStyle=orthogonalEdgeStyle;rounded=0;orthogonalLoop=1;jettySize=auto;html=1;exitX=0.5;exitY=1;exitDx=0;exitDy=0;entryX=0.5;entryY=0;entryDx=0;entryDy=0;" edge="1" parent="1" source="3FKu3UgbwwgSf9K0Oz-_-26" target="3FKu3UgbwwgSf9K0Oz-_-28">
          <mxGeometry relative="1" as="geometry">
            <mxPoint x="930" y="1010" as="targetPoint" />
          </mxGeometry>
        </mxCell>
        <mxCell id="3FKu3UgbwwgSf9K0Oz-_-26" value="&lt;pre style=&quot;background-color:#ffffff;color:#000000;font-family:&#39;JetBrains Mono&#39;,monospace;font-size:9.8pt;&quot;&gt;&lt;pre style=&quot;font-family: &amp;quot;JetBrains Mono&amp;quot;, monospace; font-size: 9.8pt;&quot;&gt;&lt;pre style=&quot;border-color: var(--border-color); font-size: 9.8pt; font-family: &amp;quot;JetBrains Mono&amp;quot;, monospace;&quot;&gt;DelegateDelaySubject&lt;/pre&gt;&lt;/pre&gt;&lt;/pre&gt;" style="rounded=0;whiteSpace=wrap;html=1;" vertex="1" parent="1">
          <mxGeometry x="225" y="77" width="250" height="40" as="geometry" />
        </mxCell>
        <mxCell id="3FKu3UgbwwgSf9K0Oz-_-27" style="edgeStyle=orthogonalEdgeStyle;rounded=0;orthogonalLoop=1;jettySize=auto;html=1;exitX=1;exitY=0.5;exitDx=0;exitDy=0;entryX=0;entryY=0.5;entryDx=0;entryDy=0;" edge="1" parent="1" source="3FKu3UgbwwgSf9K0Oz-_-28" target="3FKu3UgbwwgSf9K0Oz-_-30">
          <mxGeometry relative="1" as="geometry" />
        </mxCell>
        <mxCell id="3FKu3UgbwwgSf9K0Oz-_-28" value="&lt;pre style=&quot;background-color:#ffffff;color:#000000;font-family:&#39;JetBrains Mono&#39;,monospace;font-size:9.8pt;&quot;&gt;&lt;pre style=&quot;font-family: &amp;quot;JetBrains Mono&amp;quot;, monospace; font-size: 9.8pt;&quot;&gt;&lt;span style=&quot;font-size: 7.5pt; white-space: normal;&quot;&gt;authenticationSubject（token）&lt;/span&gt;&lt;br&gt;&lt;/pre&gt;&lt;/pre&gt;" style="rounded=0;whiteSpace=wrap;html=1;" vertex="1" parent="1">
          <mxGeometry x="270" y="810" width="160" height="40" as="geometry" />
        </mxCell>
        <mxCell id="3FKu3UgbwwgSf9K0Oz-_-29" style="edgeStyle=orthogonalEdgeStyle;rounded=0;orthogonalLoop=1;jettySize=auto;html=1;exitX=1;exitY=0.5;exitDx=0;exitDy=0;entryX=0;entryY=0.5;entryDx=0;entryDy=0;" edge="1" parent="1" source="3FKu3UgbwwgSf9K0Oz-_-30" target="3FKu3UgbwwgSf9K0Oz-_-32">
          <mxGeometry relative="1" as="geometry" />
        </mxCell>
        <mxCell id="3FKu3UgbwwgSf9K0Oz-_-30" value="&lt;pre style=&quot;background-color:#ffffff;color:#000000;font-family:&#39;JetBrains Mono&#39;,monospace;font-size:9.8pt;&quot;&gt;&lt;pre style=&quot;font-family: &amp;quot;JetBrains Mono&amp;quot;, monospace; font-size: 9.8pt;&quot;&gt;&lt;span style=&quot;font-size: 7.5pt; white-space: normal;&quot;&gt;authenticationSubject（token）&lt;/span&gt;&lt;br&gt;&lt;/pre&gt;&lt;/pre&gt;" style="rounded=0;whiteSpace=wrap;html=1;" vertex="1" parent="1">
          <mxGeometry x="640" y="810" width="160" height="40" as="geometry" />
        </mxCell>
        <mxCell id="3FKu3UgbwwgSf9K0Oz-_-31" style="edgeStyle=orthogonalEdgeStyle;rounded=0;orthogonalLoop=1;jettySize=auto;html=1;exitX=1;exitY=0.5;exitDx=0;exitDy=0;entryX=0;entryY=0.5;entryDx=0;entryDy=0;" edge="1" parent="1" source="3FKu3UgbwwgSf9K0Oz-_-32" target="3FKu3UgbwwgSf9K0Oz-_-34">
          <mxGeometry relative="1" as="geometry" />
        </mxCell>
        <mxCell id="3FKu3UgbwwgSf9K0Oz-_-32" value="&lt;pre style=&quot;background-color:#ffffff;color:#000000;font-family:&#39;JetBrains Mono&#39;,monospace;font-size:9.8pt;&quot;&gt;&lt;pre style=&quot;font-family: &amp;quot;JetBrains Mono&amp;quot;, monospace; font-size: 9.8pt;&quot;&gt;&lt;span style=&quot;font-size: 7.5pt; white-space: normal;&quot;&gt;authenticationSubject（token）&lt;/span&gt;&lt;br&gt;&lt;/pre&gt;&lt;/pre&gt;" style="rounded=0;whiteSpace=wrap;html=1;" vertex="1" parent="1">
          <mxGeometry x="1076" y="810" width="160" height="40" as="geometry" />
        </mxCell>
        <mxCell id="3FKu3UgbwwgSf9K0Oz-_-33" style="edgeStyle=orthogonalEdgeStyle;rounded=0;orthogonalLoop=1;jettySize=auto;html=1;exitX=0.5;exitY=1;exitDx=0;exitDy=0;" edge="1" parent="1" source="3FKu3UgbwwgSf9K0Oz-_-34" target="3FKu3UgbwwgSf9K0Oz-_-36">
          <mxGeometry relative="1" as="geometry">
            <mxPoint x="1500.2352941176473" y="919.9999999999998" as="targetPoint" />
          </mxGeometry>
        </mxCell>
        <mxCell id="3FKu3UgbwwgSf9K0Oz-_-34" value="&lt;pre style=&quot;background-color:#ffffff;color:#000000;font-family:&#39;JetBrains Mono&#39;,monospace;font-size:9.8pt;&quot;&gt;&lt;pre style=&quot;font-family: &amp;quot;JetBrains Mono&amp;quot;, monospace; font-size: 9.8pt;&quot;&gt;&lt;span style=&quot;font-size: 7.5pt; white-space: normal;&quot;&gt;authenticationSubject（token）&lt;/span&gt;&lt;br&gt;&lt;/pre&gt;&lt;/pre&gt;" style="rounded=0;whiteSpace=wrap;html=1;" vertex="1" parent="1">
          <mxGeometry x="1420" y="810" width="160" height="40" as="geometry" />
        </mxCell>
        <mxCell id="3FKu3UgbwwgSf9K0Oz-_-35" style="edgeStyle=orthogonalEdgeStyle;rounded=0;orthogonalLoop=1;jettySize=auto;html=1;exitX=0;exitY=0.5;exitDx=0;exitDy=0;entryX=1;entryY=0.5;entryDx=0;entryDy=0;" edge="1" parent="1" source="3FKu3UgbwwgSf9K0Oz-_-36" target="3FKu3UgbwwgSf9K0Oz-_-37">
          <mxGeometry relative="1" as="geometry">
            <mxPoint x="25" y="969.9999999999998" as="targetPoint" />
          </mxGeometry>
        </mxCell>
        <mxCell id="3FKu3UgbwwgSf9K0Oz-_-36" value="&lt;pre style=&quot;background-color:#ffffff;color:#000000;font-family:&#39;JetBrains Mono&#39;,monospace;font-size:9.8pt;&quot;&gt;&lt;pre style=&quot;font-family: &amp;quot;JetBrains Mono&amp;quot;, monospace; font-size: 9.8pt;&quot;&gt;&lt;span style=&quot;font-size: 7.5pt;&quot;&gt;返回&lt;/span&gt;FileShareSubject主体&lt;br&gt;&lt;/pre&gt;&lt;/pre&gt;" style="rounded=0;whiteSpace=wrap;html=1;" vertex="1" parent="1">
          <mxGeometry x="1420" y="940" width="160" height="40" as="geometry" />
        </mxCell>
        <mxCell id="3FKu3UgbwwgSf9K0Oz-_-37" value="&lt;pre style=&quot;background-color:#ffffff;color:#000000;font-family:&#39;JetBrains Mono&#39;,monospace;font-size:9.8pt;&quot;&gt;&lt;pre style=&quot;font-family: &amp;quot;JetBrains Mono&amp;quot;, monospace; font-size: 9.8pt;&quot;&gt;将主体塞入到上下文中&lt;/pre&gt;&lt;/pre&gt;" style="rounded=0;whiteSpace=wrap;html=1;" vertex="1" parent="1">
          <mxGeometry x="-80" y="950" width="160" height="40" as="geometry" />
        </mxCell>
        <mxCell id="3FKu3UgbwwgSf9K0Oz-_-38" style="edgeStyle=orthogonalEdgeStyle;rounded=0;orthogonalLoop=1;jettySize=auto;html=1;exitX=0.5;exitY=1;exitDx=0;exitDy=0;" edge="1" parent="1" source="3FKu3UgbwwgSf9K0Oz-_-39" target="3FKu3UgbwwgSf9K0Oz-_-42">
          <mxGeometry relative="1" as="geometry" />
        </mxCell>
        <mxCell id="3FKu3UgbwwgSf9K0Oz-_-39" value="&lt;pre style=&quot;background-color:#ffffff;color:#000000;font-family:&#39;JetBrains Mono&#39;,monospace;font-size:9.8pt;&quot;&gt;&lt;pre style=&quot;font-family: &amp;quot;JetBrains Mono&amp;quot;, monospace; font-size: 9.8pt;&quot;&gt;WebSecurityConfig&lt;/pre&gt;&lt;/pre&gt;" style="rounded=0;whiteSpace=wrap;html=1;" vertex="1" parent="1">
          <mxGeometry x="-1615" y="77" width="250" height="40" as="geometry" />
        </mxCell>
        <mxCell id="3FKu3UgbwwgSf9K0Oz-_-40" style="edgeStyle=orthogonalEdgeStyle;rounded=0;orthogonalLoop=1;jettySize=auto;html=1;exitX=1;exitY=0.5;exitDx=0;exitDy=0;entryX=0;entryY=0.5;entryDx=0;entryDy=0;" edge="1" parent="1" source="3FKu3UgbwwgSf9K0Oz-_-42" target="3FKu3UgbwwgSf9K0Oz-_-45">
          <mxGeometry relative="1" as="geometry" />
        </mxCell>
        <mxCell id="3FKu3UgbwwgSf9K0Oz-_-41" style="edgeStyle=orthogonalEdgeStyle;rounded=0;orthogonalLoop=1;jettySize=auto;html=1;exitX=0.5;exitY=1;exitDx=0;exitDy=0;" edge="1" parent="1" source="3FKu3UgbwwgSf9K0Oz-_-42" target="3FKu3UgbwwgSf9K0Oz-_-58">
          <mxGeometry relative="1" as="geometry" />
        </mxCell>
        <mxCell id="3FKu3UgbwwgSf9K0Oz-_-42" value="&lt;pre style=&quot;background-color:#ffffff;color:#000000;font-family:&#39;JetBrains Mono&#39;,monospace;font-size:9.8pt;&quot;&gt;&lt;pre style=&quot;font-family: &amp;quot;JetBrains Mono&amp;quot;, monospace; font-size: 9.8pt;&quot;&gt;将WebRequestTokenObtainFilter过滤器按顺序添加到spring&lt;/pre&gt;&lt;/pre&gt;" style="rounded=0;whiteSpace=wrap;html=1;" vertex="1" parent="1">
          <mxGeometry x="-1570" y="160" width="160" height="40" as="geometry" />
        </mxCell>
        <mxCell id="3FKu3UgbwwgSf9K0Oz-_-43" value="&lt;pre style=&quot;background-color:#ffffff;color:#000000;font-family:&#39;JetBrains Mono&#39;,monospace;font-size:9.8pt;&quot;&gt;&lt;pre style=&quot;font-family: &amp;quot;JetBrains Mono&amp;quot;, monospace; font-size: 9.8pt;&quot;&gt;WebRequestTokenObtainFilter&lt;/pre&gt;&lt;/pre&gt;" style="rounded=0;whiteSpace=wrap;html=1;" vertex="1" parent="1">
          <mxGeometry x="-1220" y="80" width="250" height="40" as="geometry" />
        </mxCell>
        <mxCell id="3FKu3UgbwwgSf9K0Oz-_-44" style="edgeStyle=orthogonalEdgeStyle;rounded=0;orthogonalLoop=1;jettySize=auto;html=1;exitX=1;exitY=0.5;exitDx=0;exitDy=0;entryX=0;entryY=0.5;entryDx=0;entryDy=0;" edge="1" parent="1" source="3FKu3UgbwwgSf9K0Oz-_-45" target="3FKu3UgbwwgSf9K0Oz-_-48">
          <mxGeometry relative="1" as="geometry" />
        </mxCell>
        <mxCell id="3FKu3UgbwwgSf9K0Oz-_-45" value="&lt;pre style=&quot;background-color:#ffffff;color:#000000;font-family:&#39;JetBrains Mono&#39;,monospace;font-size:9.8pt;&quot;&gt;&lt;pre style=&quot;font-family: &amp;quot;JetBrains Mono&amp;quot;, monospace; font-size: 9.8pt;&quot;&gt;doFilter&lt;/pre&gt;&lt;/pre&gt;" style="rounded=0;whiteSpace=wrap;html=1;" vertex="1" parent="1">
          <mxGeometry x="-1175" y="160" width="160" height="40" as="geometry" />
        </mxCell>
        <mxCell id="3FKu3UgbwwgSf9K0Oz-_-46" value="&lt;pre style=&quot;background-color:#ffffff;color:#000000;font-family:&#39;JetBrains Mono&#39;,monospace;font-size:9.8pt;&quot;&gt;&lt;pre style=&quot;font-family: &amp;quot;JetBrains Mono&amp;quot;, monospace; font-size: 9.8pt;&quot;&gt;IWebRequestTokenObtain&lt;/pre&gt;&lt;/pre&gt;" style="rounded=0;whiteSpace=wrap;html=1;" vertex="1" parent="1">
          <mxGeometry x="-850" y="80" width="250" height="40" as="geometry" />
        </mxCell>
        <mxCell id="3FKu3UgbwwgSf9K0Oz-_-47" style="edgeStyle=orthogonalEdgeStyle;rounded=0;orthogonalLoop=1;jettySize=auto;html=1;exitX=1;exitY=0.5;exitDx=0;exitDy=0;entryX=0;entryY=0.5;entryDx=0;entryDy=0;" edge="1" parent="1" source="3FKu3UgbwwgSf9K0Oz-_-48" target="3FKu3UgbwwgSf9K0Oz-_-52">
          <mxGeometry relative="1" as="geometry" />
        </mxCell>
        <mxCell id="3FKu3UgbwwgSf9K0Oz-_-48" value="&lt;pre style=&quot;background-color:#ffffff;color:#000000;font-family:&#39;JetBrains Mono&#39;,monospace;font-size:9.8pt;&quot;&gt;&lt;pre style=&quot;font-family: &amp;quot;JetBrains Mono&amp;quot;, monospace; font-size: 9.8pt;&quot;&gt;obtainToken&lt;/pre&gt;&lt;/pre&gt;" style="rounded=0;whiteSpace=wrap;html=1;" vertex="1" parent="1">
          <mxGeometry x="-805" y="160" width="160" height="40" as="geometry" />
        </mxCell>
        <mxCell id="3FKu3UgbwwgSf9K0Oz-_-49" style="edgeStyle=orthogonalEdgeStyle;rounded=0;orthogonalLoop=1;jettySize=auto;html=1;exitX=0.5;exitY=1;exitDx=0;exitDy=0;" edge="1" parent="1" source="3FKu3UgbwwgSf9K0Oz-_-50" target="3FKu3UgbwwgSf9K0Oz-_-52">
          <mxGeometry relative="1" as="geometry" />
        </mxCell>
        <mxCell id="3FKu3UgbwwgSf9K0Oz-_-50" value="&lt;pre style=&quot;background-color:#ffffff;color:#000000;font-family:&#39;JetBrains Mono&#39;,monospace;font-size:9.8pt;&quot;&gt;&lt;pre style=&quot;font-family: &amp;quot;JetBrains Mono&amp;quot;, monospace; font-size: 9.8pt;&quot;&gt;FileShareTokenObtain&lt;/pre&gt;&lt;/pre&gt;" style="rounded=0;whiteSpace=wrap;html=1;" vertex="1" parent="1">
          <mxGeometry x="-490" y="77" width="250" height="40" as="geometry" />
        </mxCell>
        <mxCell id="3FKu3UgbwwgSf9K0Oz-_-51" style="edgeStyle=orthogonalEdgeStyle;rounded=0;orthogonalLoop=1;jettySize=auto;html=1;exitX=0.5;exitY=1;exitDx=0;exitDy=0;" edge="1" parent="1" source="3FKu3UgbwwgSf9K0Oz-_-52" target="3FKu3UgbwwgSf9K0Oz-_-54">
          <mxGeometry relative="1" as="geometry" />
        </mxCell>
        <mxCell id="3FKu3UgbwwgSf9K0Oz-_-52" value="&lt;pre style=&quot;background-color:#ffffff;color:#000000;font-family:&#39;JetBrains Mono&#39;,monospace;font-size:9.8pt;&quot;&gt;&lt;pre style=&quot;font-family: &amp;quot;JetBrains Mono&amp;quot;, monospace; font-size: 9.8pt;&quot;&gt;obtainToken&lt;/pre&gt;&lt;/pre&gt;" style="rounded=0;whiteSpace=wrap;html=1;" vertex="1" parent="1">
          <mxGeometry x="-445" y="160" width="160" height="40" as="geometry" />
        </mxCell>
        <mxCell id="3FKu3UgbwwgSf9K0Oz-_-53" style="edgeStyle=orthogonalEdgeStyle;rounded=0;orthogonalLoop=1;jettySize=auto;html=1;exitX=0.5;exitY=1;exitDx=0;exitDy=0;" edge="1" parent="1" source="3FKu3UgbwwgSf9K0Oz-_-54">
          <mxGeometry relative="1" as="geometry">
            <mxPoint x="-364.9523809523812" y="380" as="targetPoint" />
          </mxGeometry>
        </mxCell>
        <mxCell id="3FKu3UgbwwgSf9K0Oz-_-54" value="&lt;pre style=&quot;background-color:#ffffff;color:#000000;font-family:&#39;JetBrains Mono&#39;,monospace;font-size:9.8pt;&quot;&gt;&lt;pre style=&quot;font-family: &amp;quot;JetBrains Mono&amp;quot;, monospace; font-size: 9.8pt;&quot;&gt;获取request中的cookie&lt;/pre&gt;&lt;/pre&gt;" style="rounded=0;whiteSpace=wrap;html=1;" vertex="1" parent="1">
          <mxGeometry x="-445" y="285" width="160" height="40" as="geometry" />
        </mxCell>
        <mxCell id="3FKu3UgbwwgSf9K0Oz-_-55" style="edgeStyle=orthogonalEdgeStyle;rounded=0;orthogonalLoop=1;jettySize=auto;html=1;exitX=0;exitY=0.5;exitDx=0;exitDy=0;entryX=1;entryY=0.5;entryDx=0;entryDy=0;" edge="1" parent="1" source="3FKu3UgbwwgSf9K0Oz-_-56" target="3FKu3UgbwwgSf9K0Oz-_-58">
          <mxGeometry relative="1" as="geometry">
            <mxPoint x="-1481.2698800223213" y="390" as="targetPoint" />
          </mxGeometry>
        </mxCell>
        <mxCell id="3FKu3UgbwwgSf9K0Oz-_-56" value="&lt;pre style=&quot;background-color:#ffffff;color:#000000;font-family:&#39;JetBrains Mono&#39;,monospace;font-size:9.8pt;&quot;&gt;&lt;pre style=&quot;font-family: &amp;quot;JetBrains Mono&amp;quot;, monospace; font-size: 9.8pt;&quot;&gt;生成IToken&lt;/pre&gt;&lt;/pre&gt;" style="rounded=0;whiteSpace=wrap;html=1;" vertex="1" parent="1">
          <mxGeometry x="-445" y="380" width="160" height="40" as="geometry" />
        </mxCell>
        <mxCell id="3FKu3UgbwwgSf9K0Oz-_-57" style="edgeStyle=orthogonalEdgeStyle;rounded=0;orthogonalLoop=1;jettySize=auto;html=1;exitX=1;exitY=0.75;exitDx=0;exitDy=0;entryX=0;entryY=0.25;entryDx=0;entryDy=0;" edge="1" parent="1" source="3FKu3UgbwwgSf9K0Oz-_-58" target="3FKu3UgbwwgSf9K0Oz-_-8">
          <mxGeometry relative="1" as="geometry" />
        </mxCell>
        <mxCell id="3FKu3UgbwwgSf9K0Oz-_-58" value="&lt;pre style=&quot;background-color:#ffffff;color:#000000;font-family:&#39;JetBrains Mono&#39;,monospace;font-size:9.8pt;&quot;&gt;&lt;pre style=&quot;font-family: &amp;quot;JetBrains Mono&amp;quot;, monospace; font-size: 9.8pt;&quot;&gt;SecurityContextHolder.createEmptyContext()&lt;br/&gt;创建上下文，并将token塞入，初始化未认证主体&lt;/pre&gt;&lt;/pre&gt;" style="rounded=0;whiteSpace=wrap;html=1;" vertex="1" parent="1">
          <mxGeometry x="-1570" y="225" width="160" height="350" as="geometry" />
        </mxCell>
        <mxCell id="3FKu3UgbwwgSf9K0Oz-_-59" style="edgeStyle=orthogonalEdgeStyle;rounded=0;orthogonalLoop=1;jettySize=auto;html=1;exitX=0.5;exitY=1;exitDx=0;exitDy=0;" edge="1" parent="1" source="3FKu3UgbwwgSf9K0Oz-_-60">
          <mxGeometry relative="1" as="geometry">
            <mxPoint x="-2034.5" y="65" as="targetPoint" />
          </mxGeometry>
        </mxCell>
        <mxCell id="3FKu3UgbwwgSf9K0Oz-_-60" value="&lt;pre style=&quot;background-color:#ffffff;color:#000000;font-family:&#39;JetBrains Mono&#39;,monospace;font-size:9.8pt;&quot;&gt;&lt;pre style=&quot;font-family: &amp;quot;JetBrains Mono&amp;quot;, monospace; font-size: 9.8pt;&quot;&gt;WebSecurityAutoConfiguration&lt;/pre&gt;&lt;/pre&gt;" style="rounded=0;whiteSpace=wrap;html=1;" vertex="1" parent="1">
          <mxGeometry x="-2160" y="-28" width="250" height="40" as="geometry" />
        </mxCell>
        <mxCell id="3FKu3UgbwwgSf9K0Oz-_-61" style="edgeStyle=orthogonalEdgeStyle;rounded=0;orthogonalLoop=1;jettySize=auto;html=1;exitX=1;exitY=0.5;exitDx=0;exitDy=0;entryX=0;entryY=0.5;entryDx=0;entryDy=0;" edge="1" parent="1" source="3FKu3UgbwwgSf9K0Oz-_-62" target="3FKu3UgbwwgSf9K0Oz-_-39">
          <mxGeometry relative="1" as="geometry" />
        </mxCell>
        <mxCell id="3FKu3UgbwwgSf9K0Oz-_-62" value="&lt;pre style=&quot;background-color:#ffffff;color:#000000;font-family:&#39;JetBrains Mono&#39;,monospace;font-size:9.8pt;&quot;&gt;&lt;pre style=&quot;font-family: &amp;quot;JetBrains Mono&amp;quot;, monospace; font-size: 9.8pt;&quot;&gt;@Import({&lt;br&gt;        WebSecurityConfig.&lt;span style=&quot;color:#000080;font-weight:bold;&quot;&gt;class&lt;/span&gt;,&lt;br&gt;        SecurityAopConfig.&lt;span style=&quot;color:#000080;font-weight:bold;&quot;&gt;class&lt;/span&gt;,&lt;br&gt;})&lt;/pre&gt;&lt;/pre&gt;" style="rounded=0;whiteSpace=wrap;html=1;" vertex="1" parent="1">
          <mxGeometry x="-2115" y="77" width="160" height="40" as="geometry" />
        </mxCell>
        <mxCell id="3FKu3UgbwwgSf9K0Oz-_-63" style="edgeStyle=orthogonalEdgeStyle;rounded=0;orthogonalLoop=1;jettySize=auto;html=1;exitX=0.5;exitY=1;exitDx=0;exitDy=0;entryX=0.5;entryY=0;entryDx=0;entryDy=0;" edge="1" parent="1" source="3FKu3UgbwwgSf9K0Oz-_-64" target="3FKu3UgbwwgSf9K0Oz-_-66">
          <mxGeometry relative="1" as="geometry" />
        </mxCell>
        <mxCell id="3FKu3UgbwwgSf9K0Oz-_-64" value="&lt;pre style=&quot;background-color:#ffffff;color:#000000;font-family:&#39;JetBrains Mono&#39;,monospace;font-size:9.8pt;&quot;&gt;&lt;pre style=&quot;font-family: &amp;quot;JetBrains Mono&amp;quot;, monospace; font-size: 9.8pt;&quot;&gt;spring.factories&lt;br&gt;&lt;/pre&gt;&lt;/pre&gt;" style="rounded=0;whiteSpace=wrap;html=1;" vertex="1" parent="1">
          <mxGeometry x="-2560" y="-240" width="250" height="40" as="geometry" />
        </mxCell>
        <mxCell id="3FKu3UgbwwgSf9K0Oz-_-65" style="edgeStyle=orthogonalEdgeStyle;rounded=0;orthogonalLoop=1;jettySize=auto;html=1;exitX=1;exitY=0.75;exitDx=0;exitDy=0;" edge="1" parent="1" source="3FKu3UgbwwgSf9K0Oz-_-66" target="3FKu3UgbwwgSf9K0Oz-_-60">
          <mxGeometry relative="1" as="geometry" />
        </mxCell>
        <mxCell id="3FKu3UgbwwgSf9K0Oz-_-66" value="&lt;pre style=&quot;background-color:#ffffff;color:#000000;font-family:&#39;JetBrains Mono&#39;,monospace;font-size:9.8pt;&quot;&gt;&lt;pre style=&quot;font-family: &amp;quot;JetBrains Mono&amp;quot;, monospace; font-size: 9.8pt;&quot;&gt;org.springframework.boot.autoconfigure.EnableAutoConfiguration=&lt;span style=&quot;color:#000080;font-weight:bold;&quot;&gt;\&lt;br&gt;&lt;/span&gt;&lt;span style=&quot;color:#008000;font-weight:bold;&quot;&gt;cn.gzsendi.basic.system.platform.starter.security.web.WebSecurityAutoConfiguration&lt;/span&gt;&lt;/pre&gt;&lt;/pre&gt;" style="rounded=0;whiteSpace=wrap;html=1;" vertex="1" parent="1">
          <mxGeometry x="-2521" y="-168" width="160" height="218" as="geometry" />
        </mxCell>
        <mxCell id="3FKu3UgbwwgSf9K0Oz-_-67" style="edgeStyle=orthogonalEdgeStyle;rounded=0;orthogonalLoop=1;jettySize=auto;html=1;exitX=1;exitY=0.5;exitDx=0;exitDy=0;" edge="1" parent="1" source="3FKu3UgbwwgSf9K0Oz-_-68" target="3FKu3UgbwwgSf9K0Oz-_-64">
          <mxGeometry relative="1" as="geometry" />
        </mxCell>
        <mxCell id="3FKu3UgbwwgSf9K0Oz-_-68" value="&lt;pre style=&quot;background-color:#ffffff;color:#000000;font-family:&#39;JetBrains Mono&#39;,monospace;font-size:9.8pt;&quot;&gt;&lt;pre style=&quot;font-family: &amp;quot;JetBrains Mono&amp;quot;, monospace; font-size: 9.8pt;&quot;&gt;web-security-service-boot-starter&lt;br&gt;&lt;/pre&gt;&lt;/pre&gt;" style="rounded=0;whiteSpace=wrap;html=1;" vertex="1" parent="1">
          <mxGeometry x="-2920" y="-240" width="250" height="40" as="geometry" />
        </mxCell>
      </root>
    </mxGraphModel>
  </diagram>
</mxfile>
